<svg xmlns="http://www.w3.org/2000/svg" viewBox="0 0 453.54 453.54">
  <defs>
    <style>
      .cls-1 {
        fill: #0f9ce6;
      }

      .cls-2 {
        fill: #ec771c;
      }

      .cls-3 {
        fill: #fe9f02;
      }

      .cls-4 {
        fill: #c5601a;
      }

      .cls-5 {
        fill: #65b1fd;
      }

      .cls-6 {
        fill: #fd9e02;
      }

      .cls-7 {
        fill: #eb771b;
      }

      .cls-8 {
        fill: #323b5a;
      }

      .cls-9 {
        fill: #fd1d56;
      }

      .cls-10 {
        fill: #fdfcfb;
      }

      .cls-11 {
        fill: #d0f3fc;
      }

      .cls-12 {
        fill: #2a334c;
      }

      .cls-13 {
        fill: #db1264;
      }

      .cls-14 {
        fill: #2b354d;
      }
    </style>
  </defs>
  <title>cacca</title>
  <g id="Livello_3" data-name="Livello 3">
    <g>
      <path class="cls-1" d="M23.25,210c1.74-4.72,1.53-9.77,2.3-14.64a200.83,200.83,0,0,1,24-68.81c1.72.09,1.89,1.65,2.54,2.73a208.75,208.75,0,0,0,56.75,61.27c6.38,4.58,13.31,8.12,19.49,12.87-7.89,13.47-6.7,26.24,3,38.35-1.12.33-2.28.58-3.37,1-6,2.24-12.5,2.7-18.07,6.11-26.88,11-33.63,47.81-12.75,69.31.87.9,2.33,1.41,2.28,3-7.44,1.66-15,3.36-21.34,8a47.75,47.75,0,0,0-17,15.66,200.28,200.28,0,0,1-35.43-86.39c-.81-5-.61-10.18-2.34-15Z"/>
      <path class="cls-2" d="M199.82,428.37A166.59,166.59,0,0,1,156,417.53a27.56,27.56,0,0,0,3.49-.56c15.44-4.31,30.81-8.73,46.3-13,6.95-1.92,13.74-4.49,20.9-5.6v16.25c0,4.9.32,5.1,4.9,3.74q9.47-2.81,19-5.51c29.63-8.38,59.23-16.82,88.91-25,5.93-1.65,11.51-4.55,17.74-5.1C343.16,395.29,327.15,404.9,310,412.6a191.52,191.52,0,0,1-65.71,16.87c-.64,0-1.34,0-1.66.75H226.7l-.07-.85c0-2.24,0-4.47.09-6.7s-.52-2.76-2.73-2.13c-5.88,1.76-11.9,3.19-17.74,5C204.12,426.31,201.19,425.65,199.82,428.37Z"/>
      <path class="cls-3" d="M199.82,428.37c1.37-2.72,4.3-2.06,6.49-2.77,5.84-1.89,11.86-3.26,17.75-5,2.21-.66,2.85-.06,2.73,2.13s-.07,4.46-.1,6.7c-5,.49-10.09-.83-15,.85h-1.6C206.85,428.54,203.18,429.37,199.82,428.37Z"/>
      <path class="cls-4" d="M211.67,430.24c4.93-1.68,10-.36,15-.85,0,.29.05.58.07.85Z"/>
      <path class="cls-5" d="M128.36,203.42c-6.18-4.75-13.15-8.29-19.48-12.87a208.56,208.56,0,0,1-56.81-61.27c-.65-1.06-.82-2.64-2.54-2.73,19.29-33.47,45.69-59.77,79.56-78.39a197.39,197.39,0,0,1,83-24.36q78.83-5.24,141,43.48A200.85,200.85,0,0,1,404,126.54c-1.54,0-1.78,1.41-2.35,2.39A190.17,190.17,0,0,1,379.74,159C364,176.54,346.1,191.55,325.32,202.9l-.85-.08c-5.87-4.89-13.13-6-20.19-7.68a29.39,29.39,0,0,0,.33-17.1c-3.25-12.27-13.46-21.43-24.44-22.2-6.06-1.49-12.24-.06-18.33-.72a29.39,29.39,0,0,0-3.54-15.61q-9.74-17.4-19.94-34.59a11.69,11.69,0,0,0-11.61-6.06c-6.59.09-10.32,4-13.31,9.42-5.31,9.56-10.85,19-16.35,28.47A35.85,35.85,0,0,0,192,155.18l-15.07.27c-14.72.28-25.32,9.05-27.74,22.85-.71,4,.18,7.9.6,11.83C141,192,133.68,196.15,128.36,203.42Z"/>
      <path class="cls-1" d="M325.32,202.86C346.1,191.51,364,176.5,379.74,159a189.84,189.84,0,0,0,21.91-30c.57-1,.81-2.34,2.35-2.39A197.75,197.75,0,0,1,428.8,202q8.49,73.25-31.14,135.4c-.91,1.43-2,2.76-3,4.13a53.25,53.25,0,0,0-19.13-12.32c5.81-22.39-1.5-44.62-19.13-58-.56-.51-1.06-1.06-1.68-1.54-5-4-11.17-5.84-16.82-8.64A42.16,42.16,0,0,0,343,229.55C340.59,218.3,334.21,209.79,325.32,202.86Z"/>
      <path class="cls-4" d="M375.5,329.18a53.13,53.13,0,0,1,19.12,12.32c-4.87,8.72-11.56,16.06-18.19,23.37a118.62,118.62,0,0,1-17.89,16.81c-.65,0-1.2.23-1.3,1h0c-6.23.55-11.81,3.46-17.74,5.1-29.68,8.23-59.28,16.66-88.91,25.05q-9.51,2.69-19,5.51c-4.58,1.36-4.88,1.16-4.9-3.74V398.33a6,6,0,0,1,.12-.7c11-2.07,21.63-5.68,32.41-8.7,24.62-6.9,49.15-14.09,73.82-20.79C354.09,362.48,369,350.46,375.5,329.18Z"/>
      <path class="cls-2" d="M357.27,382.71c.09-.76.64-.94,1.29-1Z"/>
      <path class="cls-6" d="M226.85,397.69a2.94,2.94,0,0,1-.12.7c-7.16,1.11-13.95,3.68-20.9,5.6-15.46,4.25-30.81,8.67-46.3,13a27.56,27.56,0,0,1-3.49.56,159.28,159.28,0,0,1-34.76-16.61,206.34,206.34,0,0,1-60.21-56.1,47.83,47.83,0,0,1,17-15.66c7,6.61,14.2,13,23.23,16.89,10.17,4.4,20.54,6.75,31.79,5.66,7.16-.7,13.9-2.83,20.83-4.32,7.43,9,15.67,17.12,26,22.89,2.5,1.43,5,3,7.54,4.25a92.11,92.11,0,0,0,39.31,9.07Q226.8,390.64,226.85,397.69Z"/>
      <path class="cls-6" d="M99.38,321.2c0-1.61-1.41-2.12-2.28-3C76.22,296.65,83,259.87,109.85,248.87a8.69,8.69,0,0,1,2.49,2.49c4.85,5.83,10.24,10.94,17,14.56,11.34,6,23.23,7.44,35.69,5.06,12.75,1.8,24-1.36,33.52-10.19,8.12-1.13,15.73-4.18,23.6-6.25,4.51-1.19,4.56-1.29,4.56,3.56v33.71c-1.71.07-3.42.2-5.14.21l-62.24.18c-2.64-.07-5.32-.24-7.89-.16-10,.31-16.23,8.41-14.23,18.32a137.26,137.26,0,0,0,5.51,18.06c-10.29,3.74-20.43,3.28-30.72-.33C107.4,326.45,103.92,322.82,99.38,321.2Z"/>
      <path class="cls-3" d="M128.36,203.42c5.39-7.27,12.75-11.38,21.43-13.29l11.41-3.19q30.57-8.72,61.16-17.41c4.42-1.25,4.46-1.14,4.46,3.61v58.33a5.5,5.5,0,0,1-.11.69c-6,.31-11.44,3.38-17.39,4.09l-.19-3.18c-2-28.86-33.39-44.57-57.18-28.59-10.07,6.77-19.75,20.76-14.6,41.22-2.65-.35-3.9-2.85-6-4C121.61,229.66,120.42,216.89,128.36,203.42Z"/>
      <path class="cls-7" d="M99.38,321.2c4.59,1.62,8,5.25,12.75,6.9,10.28,3.61,20.43,4.07,30.72.33a138.5,138.5,0,0,0,11,18.93c-6.92,1.5-13.66,3.63-20.82,4.33-11.25,1.06-21.62-1.27-31.79-5.66-9-3.9-16.21-10.28-23.23-16.89C84.43,324.56,91.9,322.86,99.38,321.2Z"/>
      <path class="cls-2" d="M131.27,241.77c2.13,1.12,3.38,3.62,6,4,4.77,13.36,14.18,21.6,27.77,25.24-12.46,2.35-24.35,1-35.69-5.06-6.81-3.62-12.2-8.73-17-14.56a8.65,8.65,0,0,0-2.48-2.49c5.54-3.41,12.09-3.87,18.06-6.11C129,242.35,130.15,242.1,131.27,241.77Z"/>
      <path class="cls-2" d="M226.78,231.48V173.15c0-4.75,0-4.86-4.47-3.61Q191.74,178.2,161.15,187l-11.4,3.19c-.42-3.93-1.3-7.82-.6-11.83,2.42-13.81,13-22.56,27.74-22.85l15.07-.27h34.82l.08.09c0,3.3,0,6.62-.08,9.93,0,2,.32,3,2.75,2.2,5.15-1.61,10.37-3.06,15.61-4.36,11.58-2.91,22.66-8.26,35.06-7.16,10.94.77,21.14,9.93,24.44,22.2a29.43,29.43,0,0,1-.32,17.11c-.29,3.19-2.59,5.58-3.57,8.5-14.61-7.85-28.78-7.56-42.3,2.48-6.95,5.17-10.77,12.48-13.28,20.58Z"/>
      <path class="cls-2" d="M209.28,236.26c5.95-.71,11.34-3.78,17.39-4.09,0,5.26.07,10.53.09,15.79,0,5.54,0,5.41,5.12,4,4.9-1.34,9.65-3.33,14.79-3.85.44.8.93,1.58,1.33,2.39,6.92,14.26,20.64,22,37,20.73,13.89-1.06,26.56-11.36,31-25.38,2.93-9.24,1.87-18.27-1.77-27.1,1.24-.61,1.82-1.8,2.65-2.8,3.3-4,4.61-9,7.59-13.14l.85.08c8.89,6.89,15.27,15.4,17.69,26.64A42.11,42.11,0,0,1,337.87,261c-6.26,11.16-16.22,17.2-28.22,20.57-11.75,3.29-23.45,6.8-35.17,10.22-2.23,0-4.46.12-6.7.13q-20.52.12-41,.22v-34c0-4.85-.05-4.75-4.55-3.56-7.88,2.13-15.49,5.12-23.6,6.25A41.25,41.25,0,0,0,209.28,236.26Z"/>
      <path class="cls-2" d="M226.75,98.86a11.69,11.69,0,0,1,11.61,6.06q10.21,17.19,19.95,34.59a29.39,29.39,0,0,1,3.54,15.61l-35,.1-.09-.08Q226.76,127,226.75,98.86Z"/>
      <path class="cls-3" d="M226.75,98.86v56.31H191.93a35.93,35.93,0,0,1,5.15-18.43c5.51-9.46,11.07-18.88,16.36-28.45C216.43,102.88,220.16,99,226.75,98.86Z"/>
      <path class="cls-4" d="M226.85,155.22l35-.1c6.09.66,12.27-.77,18.33.72-12.39-1.06-23.47,4.25-35.07,7.15-5.23,1.31-10.45,2.75-15.6,4.37-2.43.76-2.8-.21-2.76-2.2C226.83,161.84,226.83,158.53,226.85,155.22Z"/>
      <path class="cls-4" d="M324.47,202.86c-3,4.11-4.25,9.19-7.59,13.14-.83,1-1.41,2.19-2.65,2.81a44.56,44.56,0,0,0-13.54-15.12c1-2.92,3.28-5.32,3.57-8.5C311.34,196.77,318.56,197.93,324.47,202.86Z"/>
      <path class="cls-7" d="M226.85,397.69l-.12-14.09v-.39c17,.67,32.58-4,47-12.75a90,90,0,0,0,39.79-49.66c2.2-6.5,4.39-13.06,2.39-20.08,4.15-.29,7.89-1.92,11.62-3.54,12.5-5.42,21.57-14.71,28.83-26,17.62,13.43,24.93,35.62,19.13,58-6.55,21.25-21.41,33.3-42.42,39-24.67,6.71-49.2,13.9-73.82,20.8C248.48,392,237.87,395.61,226.85,397.69Z"/>
      <path class="cls-4" d="M356.38,271.17c-7.26,11.25-16.33,20.54-28.83,26-3.73,1.61-7.44,3.25-11.63,3.54-2.83-4.91-6.81-8.28-12.65-8.7a87.17,87.17,0,0,0-9,.1l-19.79-.29c11.69-3.42,23.38-6.93,35.17-10.22,12-3.37,22-9.41,28.22-20.57,5.66,2.79,11.8,4.62,16.82,8.64C355.29,270.11,355.82,270.66,356.38,271.17Z"/>
      <path class="cls-8" d="M153.86,347.36a138.62,138.62,0,0,1-11.09-18.95,135.41,135.41,0,0,1-5.5-18.07c-2-9.9,4.18-18.06,14.22-18.31,2.63-.08,5.25.09,7.89.16.18,17,11.09,28.57,27.69,28.85,13.24.24,26.48,0,39.73,0l-.08.36V338c-5.45.93-11,1.07-16.31,3-14.54,5.26-24.44,15.27-30.59,29.25C169.56,364.51,161.35,356.36,153.86,347.36Z"/>
      <path class="cls-9" d="M179.86,370.28c6.16-14,16-24,30.59-29.25,5.32-1.91,10.86-2.12,16.31-3l-.11.35q0,22.42.08,44.84v.39a92.11,92.11,0,0,1-39.31-9.07C184.83,373.27,182.37,371.71,179.86,370.28Z"/>
      <path class="cls-10" d="M209.28,236.26a41.23,41.23,0,0,1-10.63,24.53c-9.56,8.83-20.76,12-33.52,10.19-13.59-3.64-23-11.88-27.78-25.24-5.15-20.46,4.53-34.44,14.6-41.21,23.79-15.94,55.18-.28,57.18,28.58Zm-36.92-21.71a20.24,20.24,0,0,0-20.29,20.2V235a20.52,20.52,0,0,0,20.25,20.19A20.29,20.29,0,0,0,192.72,235v-.18a20,20,0,0,0-19.83-20.26A4.69,4.69,0,0,0,172.36,214.55Z"/>
      <path class="cls-10" d="M226.82,321c-13.25,0-26.49.26-39.73,0-16.6-.28-27.51-11.84-27.69-28.85l62.24-.19c1.72,0,3.44-.13,5.15-.2v.32Q226.78,306.58,226.82,321Z"/>
      <path class="cls-4" d="M246.67,248.12c-5.14.52-9.89,2.51-14.79,3.85-5.14,1.4-5.09,1.53-5.12-4,0-5.26-.06-10.53-.09-15.79a3.3,3.3,0,0,1,.11-.69l18.32-4.78A45.35,45.35,0,0,0,246.67,248.12Z"/>
      <path class="cls-10" d="M246.67,248.12a45.35,45.35,0,0,1-1.57-21.42c2.51-8.09,6.38-15.4,13.29-20.57,13.51-10,27.69-10.34,42.3-2.49a44.68,44.68,0,0,1,13.54,15.16c3.64,8.83,4.7,17.85,1.77,27.09-4.47,14-17.13,24.35-31,25.39-16.34,1.22-30.06-6.48-37-20.73C247.6,249.7,247.11,248.92,246.67,248.12Zm14.15-13.39a20.33,20.33,0,1,0,20.49-20.18,20.06,20.06,0,0,0-20.49,19.63Z"/>
      <path class="cls-11" d="M226.82,321q0-14.46-.08-28.9l41-.22c2.24,0,4.47-.09,6.7-.13l19.79.29c.21,17.17-11.56,29.12-28.75,29.2l-38.78.11Z"/>
      <path class="cls-12" d="M226.74,321.38l38.78-.11c17.19-.08,29-12,28.75-29.2,3-.05,6-.31,9-.1,5.84.42,9.82,3.79,12.65,8.7,2,7-.18,13.57-2.38,20.08a89.94,89.94,0,0,1-39.79,49.68,49.44,49.44,0,0,0-14.57-20.32c-9.38-7.89-20.19-12-32.53-11.69l.11-.35Q226.75,329.7,226.74,321.38Z"/>
      <path class="cls-13" d="M226.65,338.37c12.37-.29,23.15,3.85,32.53,11.69a49.54,49.54,0,0,1,14.57,20.33c-14.44,8.8-30,13.45-47,12.75Q226.69,360.81,226.65,338.37Z"/>
      <path class="cls-14" d="M172.36,214.55a20,20,0,0,1,20.36,19.73v.56a20.29,20.29,0,0,1-20.22,20.37h-.18A20.52,20.52,0,0,1,152.07,235a20.25,20.25,0,0,1,20-20.47Z"/>
      <path class="cls-14" d="M260.82,234.73a20.33,20.33,0,1,1,0,.93Q260.81,235.2,260.82,234.73Z"/>
    </g>
  </g>
</svg>
