<svg xmlns="http://www.w3.org/2000/svg" viewBox="0 0 453.54 453.54">
  <defs>
    <style>
      .cls-1 {
        fill: #ffd23b;
      }

      .cls-2 {
        fill: #fff1f1;
      }

      .cls-3 {
        fill: #ffd6d6;
      }

      .cls-11, .cls-12, .cls-4, .cls-8 {
        stroke: #000;
        stroke-miterlimit: 2.1;
      }

      .cls-4 {
        stroke-width: 0.53px;
      }

      .cls-5 {
        fill: #295f9a;
      }

      .cls-6 {
        fill: #5a7997;
      }

      .cls-7 {
        fill: #c7d6e5;
      }

      .cls-8 {
        stroke-width: 0.37px;
      }

      .cls-9 {
        fill: #d9dee6;
      }

      .cls-10 {
        fill: #fff;
      }

      .cls-11 {
        fill: none;
        stroke-width: 2.63px;
      }

      .cls-12 {
        fill: #5a9761;
        stroke-width: 1.58px;
      }
    </style>
  </defs>
  <title>cartoon_fly</title>
  <g id="Livello_2" data-name="Livello 2">
    <circle class="cls-1" cx="226.77" cy="226.77" r="203.76"/>
  </g>
  <g id="svg2">
    <g id="layer1">
      <g id="g4341">
        <path id="path4037" class="cls-2" d="M200.35,224.81,88.54,192.68s-11.27-4.51-12.78-8.27.76-32.32,3.76-40.59,22.55-30.06,27.81-31.57,72.91,42.85,84.19,54.87,21,32.14,23.3,39.65"/>
        <path id="path4035" class="cls-2" d="M264.22,187.16s3.57-32.32,2.07-39.09S242.24,71.41,237.73,69.9s-30.82,10.53-35.33,15-25.56,39.83-25.56,43.59,61.45,56.37,64.46,63.14"/>
        <path id="path4270" class="cls-3" d="M240.7,69.78c-6.62.1-30,10.93-34.25,15.16-4.51,4.51-25.55,39.83-25.55,43.59s61.45,56.37,64.46,63.13l2-.39a9.12,9.12,0,0,0-1-1.38c-.61-.76-1.43-1.68-2.42-2.73-2-2.09-4.6-4.71-7.69-7.68-6.18-5.94-14.15-13.27-22-20.5S198.61,144.6,192.81,139c-2.91-2.78-5.32-5.17-7-7-.84-.91-1.5-1.68-2-2.27a3,3,0,0,1-.69-1.25,9.21,9.21,0,0,1,.92-2.76c.58-1.34,1.42-3,2.45-5,2-3.91,4.81-8.82,7.72-13.75s6-9.89,8.57-13.89c1.3-2,2.49-3.78,3.5-5.18a26.84,26.84,0,0,1,2.4-3,17.85,17.85,0,0,1,2.62-2c1.16-.75,2.57-1.59,4.16-2.46,3.17-1.74,7-3.62,10.88-5.31,1.93-.85,3.85-1.64,5.69-2.35s3.59-1.34,5.18-1.83a32.43,32.43,0,0,1,4.16-1l.36,0a3.28,3.28,0,0,0-1.07-.12Z"/>
        <path id="path4064" class="cls-3" d="M91.81,125c-5.21,6.09-9.87,12.5-11.21,16.2-3,8.27-5.27,36.83-3.77,40.59S89.61,190,89.61,190L198.49,226.4l2.58-3.2L92.27,186.83S81,182.32,79.49,178.56s.74-32.32,3.75-40.59c1.11-3.06,4.49-8,8.57-13Z"/>
        <path id="path3788" class="cls-4" d="M199.77,226.78s-19.42-4.8-42.9-11-51-13.84-67.11-19.43l-2.3-.81-6-3.18a36.39,36.39,0,0,1-4.58-3.13,15.6,15.6,0,0,1-1.88-1.8,7.05,7.05,0,0,1-1.37-2.18,6.41,6.41,0,0,1-.33-1.48c-.06-.59-.09-1.16-.11-1.7,0-1.48,0-3,.09-4.45.18-3.84.54-7.85,1-12,.1-1.06.22-2.13.33-3.21.33-3,.69-6.24,1.15-9.6.24-1.76.51-3.59.86-5.46a34.47,34.47,0,0,1,1-4.25,25,25,0,0,1,1.88-4.08c.91-1.62,1.91-3.22,3-4.81a127.88,127.88,0,0,1,8-10.59,108.36,108.36,0,0,1,8.57-9.32,43,43,0,0,1,3.77-3.26,10.88,10.88,0,0,1,3.58-2,4.71,4.71,0,0,1,2-.12,9.65,9.65,0,0,1,1.54.35,28.59,28.59,0,0,1,3.39,1.31c3.2,1.43,6.32,3.12,9.42,4.88q3.89,2.19,7.86,4.64c6.52,4,12.58,8,18.27,11.74q15.27,10.17,27.13,19c3.76,2.79,7.3,5.5,10.55,8.18q2.06,1.66,4,3.38c1,.89,2,1.82,2.9,2.82a89,89,0,0,1,9.12,12c2.44,3.76,4.38,7.22,6,10.27,2.3,4.3,4,7.89,5.19,10.71.56,1.3,1,2.45,1.43,3.45s.69,1.84.91,2.51c.45,1.35.63,2,.63,2s-.23-.67-.77-2c-.28-.65-.63-1.47-1.09-2.43s-1-2.08-1.65-3.34c-1.4-2.72-3.29-6.17-5.83-10.29-1.8-2.94-3.93-6.25-6.53-9.81a88.27,88.27,0,0,0-9.49-11.13c-.88-.86-1.84-1.67-2.84-2.49q-1.9-1.54-4-3.09c-3.33-2.46-6.94-5-10.81-7.56q-12.19-8.19-27.77-17.65c-5.82-3.53-12-7.21-18.55-10.9q-4-2.25-7.84-4.35c-3.09-1.69-6-3.3-8.92-4.63a24.57,24.57,0,0,0-2.59-1.06,4.3,4.3,0,0,0-.53-.14c-.12,0,.08,0,.63-.09-.29,0-.8.44-1.63,1a42.72,42.72,0,0,0-3.35,2.68c-3.12,2.72-6,5.58-8.64,8.39-3.11,3.25-5.94,6.43-8.45,9.6-1.13,1.43-2.19,2.84-3.13,4.26a20.47,20.47,0,0,0-1.85,3.29A28.69,28.69,0,0,0,80,148.12c-.45,1.75-.81,3.5-1.12,5.22-.61,3.33-1,6.53-1.28,9.59-.09,1-.16,2-.21,3a103,103,0,0,0-.09,11.75c.08,1.44.19,2.82.38,4.1a12.12,12.12,0,0,0,.25,1.28c.09.29.13.45.17.44a5.91,5.91,0,0,0,.59.56,11,11,0,0,0,1.42,1,30.82,30.82,0,0,0,4.08,2c2.2.8,4.11,1.52,5.69,2.15.88.2,1.67.4,2.37.59,8,2.18,18.75,5.58,30.31,9.45s24,8.21,35.44,12.29c22.87,8.15,41.82,15.25,41.82,15.25Z"/>
        <path id="path3899" class="cls-4" d="M262.22,186.94h0v0h0a.23.23,0,0,1,0-.07c0-.06,0-.15,0-.27s0-.58.07-1c.05-.88.13-2.15.23-3.76.17-3,.4-7,.6-11.84.17-3.92.35-8.33.35-13,0-1.72,0-3.44-.11-5.14a16,16,0,0,0-.36-3h0c-.13-.53-.32-1.12-.52-1.78-.32-1.05-.66-2.11-1-3.18-1-3.14-2.08-6.32-3.15-9.51-3-9.13-6.11-18.2-8.66-26.11-1.46-4.51-2.73-8.63-3.75-12.15-.84-2.9-2.18-7.69-4.13-13.42a85.61,85.61,0,0,0-3.24-8.4,18.87,18.87,0,0,0-1.2-2.29,5.23,5.23,0,0,0-.36-.5c-.12-.06,0-.06.22.08,0,0-.22,0-.52-.07a7.66,7.66,0,0,0-1.29.11,21.15,21.15,0,0,0-2.68.58l-1.27.37a77.34,77.34,0,0,0-10.61,4.33c-3.38,1.63-6.89,3.49-10.49,5.68-1.32.8-2.63,1.63-3.89,2.54a12.66,12.66,0,0,0-2.12,1.77c-.22.25-.47.59-.77,1h0c-.4.56-.8,1.15-1.21,1.77-1.08,1.64-2.15,3.37-3.25,5.18-2.62,4.33-5.33,9-8.21,14-1.92,3.33-3.91,6.77-5.91,10.37-.6,1.08-1.19,2.15-1.76,3.22-.87,1.64-1.7,3.22-2.39,4.76a15.32,15.32,0,0,0-.58,1.42c-.08.4-.15.39-.08,0-.17-1-.22-1.33-.24-1.1a3.41,3.41,0,0,0,.24.37c.48.65,1.08,1.31,1.73,2,2.21,2.43,4.53,4.7,6.8,6.92,3.93,3.85,7.69,7.43,11.23,10.78s6.85,6.46,9.94,9.37c4.65,4.39,8.79,8.29,12.41,11.76s6.72,6.5,9.34,9.11c1.64,1.63,3.11,3.11,4.38,4.42s2.36,2.49,3.27,3.49,1.86,2.12,2.46,2.89c.34.43.63.83.84,1.16a5.37,5.37,0,0,1,.46.78c.11.21.16.33.16.33s-.06-.12-.18-.32a4.73,4.73,0,0,0-.51-.74c-.24-.31-.55-.68-.93-1.09-.66-.71-1.55-1.61-2.67-2.66s-2.16-2-3.52-3.21-2.94-2.57-4.7-4.08c-2.8-2.4-6.1-5.2-9.94-8.42s-8.22-6.86-13.13-11c-3.25-2.73-6.75-5.65-10.49-8.8s-7.69-6.55-11.86-10.22c-2.39-2.11-4.89-4.32-7.37-6.79a31.81,31.81,0,0,1-2.19-2.35,8.81,8.81,0,0,1-.73-1h0c-.17-.1-.36-.64-.49-1.64a5.75,5.75,0,0,1,.32-1.82c.21-.7.45-1.35.69-1.94.71-1.79,1.51-3.53,2.33-5.25.54-1.13,1.09-2.26,1.65-3.4,1.89-3.79,3.84-7.33,5.79-10.69,2.91-5,5.85-9.66,8.78-13.92,1.23-1.77,2.47-3.5,3.75-5.16.48-.62,1-1.25,1.52-1.87h0a15.38,15.38,0,0,1,1.28-1.37,16.8,16.8,0,0,1,3.12-2.21c1.51-.89,3-1.65,4.44-2.35,4-1.91,7.73-3.45,11.29-4.84,3.92-1.52,7.61-2.86,11.13-4,.49-.16,1-.32,1.49-.46a28.57,28.57,0,0,1,2.83-.72,11.41,11.41,0,0,1,1.74-.24,4.55,4.55,0,0,1,1.6.16,2.78,2.78,0,0,1,1.09.68,8.47,8.47,0,0,1,.79.9,25,25,0,0,1,1.68,2.57c1.71,2.88,3.16,5.69,4.48,8.23,2.86,5.49,5.15,10,6.23,12.84,1.31,3.44,2.7,7.57,4.13,12.13,2.48,8,5.05,17.27,7.4,26.71.81,3.28,1.61,6.58,2.34,9.84.25,1.12.5,2.24.73,3.36.14.67.28,1.36.39,2.08h0a19.46,19.46,0,0,1,.1,3.86c-.08,1.85-.25,3.64-.44,5.38-.52,4.75-1.21,9.15-1.85,13.06-.79,4.79-1.54,8.82-2.09,11.73-.31,1.59-.55,2.84-.73,3.71-.09.45-.16.79-.2,1s-.05.2-.06.26v.09Z"/>
        <path id="path3986" class="cls-5" d="M214.5,195.26c-19.07,10.16-40.35,34.78-43,66.56-3.25,38.93,51.68,74.56,86.48,71.88a80.61,80.61,0,0,0,43.93-17.56c-.86.49-1.84-14.28-2.56-13.89-1.93,1-3.91,2-5.92,2.83a64.12,64.12,0,0,1-6.14,2.2,63.08,63.08,0,0,1-6.34,1.57,58.82,58.82,0,0,1-6.49.87,39.62,39.62,0,0,1-5.57.06,50.88,50.88,0,0,1-5.87-.69,60.62,60.62,0,0,1-6.07-1.38c-2-.57-4.12-1.24-6.18-2s-4.14-1.66-6.19-2.63-4.1-2.05-6.11-3.2-4-2.39-5.91-3.7-3.83-2.71-5.66-4.17-3.58-3-5.27-4.61-3.31-3.27-4.83-5-2.94-3.49-4.26-5.31a62.59,62.59,0,0,1-3.6-5.61,52.73,52.73,0,0,1-2.87-5.85c-.41-1-.78-2-1.11-3s-.64-2-.9-3-.49-2.06-.67-3.1-.31-2.08-.4-3.12-.16-2.09-.17-3.14,0-2.13.11-3.19c.17-2.12.43-4.19.78-6.23s.77-4,1.27-6,1.09-3.87,1.75-5.74,1.36-3.67,2.14-5.44,1.63-3.51,2.52-5.18,1.83-3.28,2.81-4.85,2-3.08,3.09-4.54,2.17-2.85,3.3-4.19,2.29-2.62,3.47-3.84,2.38-2.39,3.59-3.48c.63-.58-13.92-1.65-13.15-2.27Z"/>
        <path id="path3975" class="cls-6" d="M214.82,194.36c-.77.62-1.56,1.19-2.32,1.84-1.47,1.26-2.73,3.91-4.15,5.31s-2.83,2.87-4.2,4.41-2.7,3.13-4,4.8-2.54,3.42-3.74,5.21-2.32,3.64-3.4,5.56-2.1,3.9-3,5.94-1.81,4.1-2.6,6.24-1.49,4.34-2.1,6.58-1.13,4.55-1.55,6.89-.73,4.72-.94,7.15c-.1,1.22-.14,2.44-.13,3.65s.08,2.4.2,3.6.28,2.4.49,3.59.49,2.37.81,3.55.68,2.33,1.08,3.48.86,2.32,1.35,3.46a58.35,58.35,0,0,0,3.47,6.7,68.6,68.6,0,0,0,4.36,6.43,79.19,79.19,0,0,0,5.15,6.1c1.83,2,3.79,3.89,5.83,5.73s4.17,3.59,6.38,5.27,4.5,3.28,6.84,4.79,4.72,2.92,7.15,4.24,4.9,2.55,7.39,3.67,5,2.13,7.48,3,5,1.67,7.48,2.32,4.92,1.18,7.33,1.58a66.15,66.15,0,0,0,7.1.79,52.16,52.16,0,0,0,6.75-.07,76.35,76.35,0,0,0,7.84-1c2.58-.47,5.14-1.07,7.66-1.79s5-1.57,7.43-2.54,4.82-2,7.15-3.23c.88-.45,1.71-1,2.57-1.48,20.28-16.19,33.13-42,29.59-71.64-4.77-40-57-71-104.52-54.84a47.22,47.22,0,0,0-12.2,4.69Z"/>
        <path id="path4005" class="cls-7" d="M253.59,185.29a82.42,82.42,0,0,0-26.91,4.39,46.86,46.86,0,0,0-12.2,4.69c-.77.61-1.56,1.18-2.32,1.84-5.91,3.6-13.16,8.22,5.42,0a38.82,38.82,0,0,1,5.91-1.78c1.48-.5,3-1,4.47-1.38s3-.79,4.49-1.11a80.06,80.06,0,0,1,9-1.45,84.53,84.53,0,0,1,9-.45,86.13,86.13,0,0,1,8.83.5,84.76,84.76,0,0,1,8.63,1.38c2.84.6,5.62,1.34,8.36,2.2s5.4,1.85,8,3,5.13,2.36,7.58,3.7,4.82,2.79,7.09,4.34a80.14,80.14,0,0,1,6.51,4.95,78.05,78.05,0,0,1,5.84,5.49,72.18,72.18,0,0,1,5.13,6,66.14,66.14,0,0,1,4.31,6.43,59.16,59.16,0,0,1,3.43,6.79,55,55,0,0,1,2.47,7.12c.33,1.21.61,2.43.85,3.66s.45,2.47.59,3.72c.23,1.85.39,3.69.48,5.51s.13,3.62.1,5.41-.12,3.54-.26,5.29-.34,3.49-.59,5.2-.58,3.39-.94,5.06-.78,3.31-1.25,4.93-1,3.23-1.56,4.8-1.18,3.13-1.84,4.66-1.37,3-2.13,4.48-1.56,2.9-2.4,4.31c-.2.34-.42.66-.62,1a78.05,78.05,0,0,0,14.2-55.42c-3.87-32.49-39-59.09-77.62-59.23Z"/>
        <path id="path3784" class="cls-8" d="M228,189.06s.9-.35,2.6-.92,4.18-1.34,7.39-2.1a87,87,0,0,1,26.66-2,89,89,0,0,1,33.88,9.59,82.32,82.32,0,0,1,14,9.13,73.86,73.86,0,0,1,11.81,12A62,62,0,0,1,332.78,229a55.54,55.54,0,0,1,3.89,15.05,76.39,76.39,0,0,1-.37,19.2,82.54,82.54,0,0,1-4,15.7,85.57,85.57,0,0,1-6.54,13.86A89.17,89.17,0,0,1,315.48,307h0q-1.73,1.94-3.58,3.8a96.93,96.93,0,0,1-9.59,8.45,90,90,0,0,1-11.82,7.71A84.09,84.09,0,0,1,276.37,333a79.63,79.63,0,0,1-16.66,3.53,60.08,60.08,0,0,1-14.56-.46,84.88,84.88,0,0,1-15.43-3.84A103.93,103.93,0,0,1,205,319.7c-1.73-1.18-3.4-2.4-5-3.64a97.64,97.64,0,0,1-12.72-11.57,78.23,78.23,0,0,1-9.7-13A57.26,57.26,0,0,1,171.38,277,45,45,0,0,1,170,261.57a80.44,80.44,0,0,1,2.79-14.91,83,83,0,0,1,4.86-12.88,88.71,88.71,0,0,1,7.07-12.29,93,93,0,0,1,7.72-9.74,90.06,90.06,0,0,1,9.47-9.05,81.21,81.21,0,0,1,8.6-6.21,66.13,66.13,0,0,1,7.5-4.11,52.52,52.52,0,0,1,5.63-2.2c1.52-.48,2.68-.77,3.44-.94s1.15-.25,1.15-.25-.38.09-1.13.31-1.89.56-3.38,1.13a49.64,49.64,0,0,0-5.46,2.46,68.4,68.4,0,0,0-7.22,4.42,80.51,80.51,0,0,0-8.19,6.51,88.85,88.85,0,0,0-8.9,9.28,91.12,91.12,0,0,0-7.13,9.81,86.62,86.62,0,0,0-6.39,12.16,81.36,81.36,0,0,0-4.19,12.55,77.38,77.38,0,0,0-2.15,14.29,40.85,40.85,0,0,0,1.71,13.89,52.58,52.58,0,0,0,6.06,13.07,72.38,72.38,0,0,0,9.43,11.81,95.52,95.52,0,0,0,12.3,10.53c1.57,1.13,3.19,2.24,4.85,3.3a115.93,115.93,0,0,0,23.43,11.62,88.78,88.78,0,0,0,14.25,3.9,57.86,57.86,0,0,0,13.14,1,78.73,78.73,0,0,0,29.49-7.42,74.71,74.71,0,0,0,11.79-6.95A67.26,67.26,0,0,0,310,308.5c1.12-1.16,2.18-2.36,3.19-3.58h0a69.09,69.09,0,0,0,9-14.1A71.48,71.48,0,0,0,327,277.28a78.44,78.44,0,0,0,1.59-8.42c.34-2.49.54-4.63.71-6.34a90,90,0,0,0,0-17.56,50.74,50.74,0,0,0-3.17-13.14,59.39,59.39,0,0,0-7.06-13.06,69.35,69.35,0,0,0-10.3-11.44,80.7,80.7,0,0,0-12.65-9.24,87.32,87.32,0,0,0-15.91-7.36,89.09,89.09,0,0,0-15.86-3.89,87.05,87.05,0,0,0-26.2,0c-3.23.49-5.77,1.06-7.51,1.48s-2.66.7-2.66.7Z"/>
        <path id="path3973" class="cls-9" d="M300,196.14c30.73-2.46,41.77,10.91,44.11,30.56,2.81,23.54-22.85,43.32-43.58,44.91-17.11,1.32-36.67-17.27-35.08-36.4S289.71,197,300,196.14Z"/>
        <path id="path4145" class="cls-10" d="M303.47,196.43c-1.77,0-3.6.12-5.52.28-6.77.54-18.88,9-26.84,20.19,1.08-1.28,2.14-2.59,3.29-3.77a64.85,64.85,0,0,1,5.51-5,53.86,53.86,0,0,1,5.51-3.92,34.87,34.87,0,0,1,5.14-2.63,19.4,19.4,0,0,1,2.31-.76,13,13,0,0,1,2.07-.37c1.92-.16,3.77-.23,5.54-.27s3.46,0,5.08.07,3.19.23,4.67.43,2.89.45,4.24.75,2.63.65,3.85,1.06a31.74,31.74,0,0,1,3.47,1.38,28.63,28.63,0,0,1,5.85,3.56,28.11,28.11,0,0,1,2.42,2.19,26.89,26.89,0,0,1,2.1,2.43,27.19,27.19,0,0,1,1.81,2.67,30.18,30.18,0,0,1,1.51,2.88c.46,1,.89,2,1.27,3.09s.69,2.15,1,3.27a53,53,0,0,1,1.31,7.05,29.38,29.38,0,0,1,.2,4.38,31.53,31.53,0,0,1-.41,4.25,32.24,32.24,0,0,1-1,4.13,35.07,35.07,0,0,1-1.51,4,40.56,40.56,0,0,1-2,3.82c-.65,1.09-1.36,2.14-2.11,3.17,6.84-7.64,11-17.19,9.8-27.46-2.2-18.42-12.05-31.33-38.59-30.84Z"/>
        <path id="path3782" class="cls-4" d="M298.68,196.57s.53-.08,1.5-.19,2.38-.28,4.18-.42,4-.24,6.46-.21a58.78,58.78,0,0,1,8.25.66,40.78,40.78,0,0,1,7.41,1.82A33.45,33.45,0,0,1,334,202a28.76,28.76,0,0,1,5.38,4.79,29.77,29.77,0,0,1,4.07,6,40.82,40.82,0,0,1,4.08,14.39,31.32,31.32,0,0,1-.3,8.67,30.11,30.11,0,0,1-2.12,7c-.34.77-.78,1.67-1.34,2.68a47.14,47.14,0,0,1-4.59,6.75,59.4,59.4,0,0,1-7.14,7.3h0c-1.55,1.34-3.2,2.65-4.92,3.91a79.45,79.45,0,0,1-10.17,6.37,55.18,55.18,0,0,1-7.53,3.3,44.2,44.2,0,0,1-9,2.14,27.35,27.35,0,0,1-7.16-.14,30.81,30.81,0,0,1-7.31-2.07,38.61,38.61,0,0,1-12.73-8.71l-.72-.75a41.71,41.71,0,0,1-8-12.31,34.33,34.33,0,0,1-2.21-7.82,31.4,31.4,0,0,1-.25-7.66,34.59,34.59,0,0,1,1.87-8.15,41.91,41.91,0,0,1,3.2-6.8h0a52.41,52.41,0,0,1,4.81-6.89,61.62,61.62,0,0,1,11-10.43,50.51,50.51,0,0,1,5.34-3.42,33.83,33.83,0,0,1,4.3-2.12,22.32,22.32,0,0,1,3.32-1,17.27,17.27,0,0,1,2.07-.35l.69-.06-.68.13a18.81,18.81,0,0,0-2,.55,21.55,21.55,0,0,0-3.15,1.34,35.54,35.54,0,0,0-4,2.46,53.2,53.2,0,0,0-4.89,3.8,60.18,60.18,0,0,0-5.44,5.42,58.79,58.79,0,0,0-4.35,5.49,49.21,49.21,0,0,0-4,6.82,39.55,39.55,0,0,0-2.47,6.4,29.36,29.36,0,0,0-1.14,7.22,26.14,26.14,0,0,0,.67,6.46,29.82,29.82,0,0,0,2.31,6.51A35.91,35.91,0,0,0,277,259.31l.65.61a41.66,41.66,0,0,0,10.83,7.27A27.06,27.06,0,0,0,300,269.81a42,42,0,0,0,8.17-1,48,48,0,0,0,7.28-2.21,39.36,39.36,0,0,0,10-5.58,35.76,35.76,0,0,0,4.26-3.95h0a36.12,36.12,0,0,0,5.41-7.71,38.76,38.76,0,0,0,2.66-6.54c.29-.9.51-1.69.72-2.33a39.27,39.27,0,0,0,1.44-5.69,29,29,0,0,0,.39-6.81,40.38,40.38,0,0,0-2.54-12.41,25.18,25.18,0,0,0-6.7-9.54,28.94,28.94,0,0,0-6.05-4,41.36,41.36,0,0,0-6.53-2.58,60.23,60.23,0,0,0-7.77-1.77c-2.39-.39-4.53-.62-6.32-.77s-3.22-.22-4.2-.27l-1.51-.06Z"/>
        <path id="path4220" class="cls-6" d="M311.63,348.76,306.05,328l-4.26-12.76L288,297.2l14.35-1.59,6.91,18.6,8.51,14.62,3.72,5.84,2.39,8"/>
        <path id="path4239" class="cls-5" d="M285.85,295l16.46,20.26L306.57,328l5.58,20.71,3.05-1.53L310,328l-4.25-12.76-16.15-18.74Z"/>
        <path id="path4263" class="cls-7" d="M303.16,295.8l-.85.86,6.16,18.8,8.5,14.62,3.73,5.84,2.32,7.74,1.66-.82-2.39-8L318.56,329l-8.5-14.61Z"/>
        <path id="path3887" class="cls-4" d="M311.84,350.09s7.56-3.71,10.18-3.93l6.37-.52s-3.85-14.76-10.37-11.59-6.18,16-6.18,16Z"/>
        <path id="path3889" class="cls-11" d="M244.49,320.2s-23.3,25.55-22.55,33.07c.44,4.37,7.73,12,13.77,17.7,4.34,4.07-2.33,14.28-2.33,14.28"/>
        <path id="path3891" class="cls-11" d="M215.92,304.41s-19.54,5.27-22.55,14.28c-1.67,5,1.37,19.25-1,28.29-1.91,7.2-9.5,10-9.5,10"/>
        <path id="path3893" class="cls-11" d="M200.14,279.61c-9,2.25-25.54,3-30,11.27-2.6,4.78-5.42,17.52-11.39,24.3-4.38,5-12.66,5-12.66,5"/>
        <path id="path3895" class="cls-11" d="M328.52,284.12s26.3.75,31.56,5.26c2.88,2.47,4.19,10.56,4.78,17.38.48,5.65,8.72,8,8.72,8"/>
        <path id="path3897" class="cls-11" d="M335.3,260.82s15.79-.75,21.8,3c3.91,2.44,9.41,12.19,12.78,18.72,1.81,3.5,10.44,3.42,10.44,3.42"/>
        <path id="path3835" class="cls-9" d="M241.18,206.59c23.38-8,48.94,6.65,51.28,26.31,2.81,23.53-15.41,42.25-36.14,43.84-17.1,1.32-44.11-16.21-42.52-35.34s17.28-32.69,27.38-34.81Z"/>
        <path id="path4109" class="cls-10" d="M252.12,204.38a41.64,41.64,0,0,0-13.22,2.2c-6.82,1.44-16.08,8.17-21.93,18.22.68-.9,1.32-1.86,2.05-2.68a43.71,43.71,0,0,1,4.19-4.11,38.28,38.28,0,0,1,4.38-3.27,30.48,30.48,0,0,1,4.31-2.32,20.9,20.9,0,0,1,4-1.32,42,42,0,0,1,4.41-1.23,40,40,0,0,1,4.42-.74,43.23,43.23,0,0,1,4.39-.25c1.46,0,2.91.06,4.34.2a42.26,42.26,0,0,1,4.23.63,40.47,40.47,0,0,1,4.11,1c1.34.41,2.65.87,3.93,1.4s2.51,1.12,3.71,1.76,2.36,1.33,3.47,2.07a37.65,37.65,0,0,1,3.19,2.37A38.19,38.19,0,0,1,279,221a33.92,33.92,0,0,1,2.5,2.9,32.32,32.32,0,0,1,2.12,3.12,29.37,29.37,0,0,1,1.68,3.31,27,27,0,0,1,1.21,3.48,26,26,0,0,1,.71,3.62,40.53,40.53,0,0,1,.28,4.36,37.61,37.61,0,0,1-.81,8.28,37,37,0,0,1-1,3.92,36.54,36.54,0,0,1-3.09,7,38.34,38.34,0,0,0,7.65-28.11c-1.91-16-19.14-28.61-38.08-28.51Z"/>
        <path id="path3780" class="cls-4" d="M240.81,206.24s.45-.19,1.29-.49,2.1-.74,3.71-1.16a43.5,43.5,0,0,1,5.86-1.1,42.71,42.71,0,0,1,7.63-.22,44.32,44.32,0,0,1,17.35,4.62,40.89,40.89,0,0,1,7.26,4.6,37.66,37.66,0,0,1,6.14,6.16,31.46,31.46,0,0,1,4.37,7.48,28.61,28.61,0,0,1,2,7.92,35.78,35.78,0,0,1-.42,9.84,42.55,42.55,0,0,1-2.36,7.93,45.44,45.44,0,0,1-3.54,6.92,48.94,48.94,0,0,1-5.31,7h0c-.58.65-1.19,1.28-1.81,1.9a59.2,59.2,0,0,1-4.76,4.23,49.17,49.17,0,0,1-5.81,4,43.35,43.35,0,0,1-7.09,3.3,39.42,39.42,0,0,1-8.48,2,31.83,31.83,0,0,1-7.61-.08,41.09,41.09,0,0,1-7.82-1.86h0a50.48,50.48,0,0,1-12.57-6.33c-.87-.61-1.72-1.23-2.53-1.86a50,50,0,0,1-6.44-5.92,40.9,40.9,0,0,1-4.93-6.7,29.79,29.79,0,0,1-3.15-7.55,23.67,23.67,0,0,1-.65-8.11,41.06,41.06,0,0,1,1.65-8.13,42.58,42.58,0,0,1,2.8-6.88,44.93,44.93,0,0,1,7.13-10.21,44,44,0,0,1,4.83-4.53,40.68,40.68,0,0,1,4.38-3.1,31.38,31.38,0,0,1,3.84-2,27.51,27.51,0,0,1,2.9-1.1c.79-.24,1.39-.38,1.79-.46l.6-.13-.58.19c-.39.13-1,.33-1.72.65a25.38,25.38,0,0,0-2.75,1.36,33.15,33.15,0,0,0-3.55,2.35,43.36,43.36,0,0,0-8.23,8.15,44,44,0,0,0-5.95,10.19,40.31,40.31,0,0,0-2.1,6.56,37,37,0,0,0-.95,7.47,19.45,19.45,0,0,0,1,6.58,25.08,25.08,0,0,0,3.07,6.12A34.14,34.14,0,0,0,224,261.3a46.83,46.83,0,0,0,6,4.88c.76.52,1.55,1,2.36,1.52a63.56,63.56,0,0,0,11.24,5.41h0a51.81,51.81,0,0,0,6.64,1.91,26.72,26.72,0,0,0,6.18.6,37.2,37.2,0,0,0,7.61-.93,37.76,37.76,0,0,0,6.74-2.21,30.93,30.93,0,0,0,10.17-7c.54-.57,1-1.16,1.51-1.76h0a28.78,28.78,0,0,0,4.05-7,31.11,31.11,0,0,0,1.88-6.61,69.8,69.8,0,0,0,.65-7,50.25,50.25,0,0,0,.06-8.2,23.68,23.68,0,0,0-1.27-6,28.65,28.65,0,0,0-3.05-6.19,33.39,33.39,0,0,0-4.63-5.62,39.46,39.46,0,0,0-5.87-4.73,42.91,42.91,0,0,0-7.55-4A44.58,44.58,0,0,0,259,206.1a43.7,43.7,0,0,0-7.23-.86,45.24,45.24,0,0,0-5.81.18c-1.63.16-2.93.38-3.82.54s-1.36.28-1.36.28Z"/>
        <path id="path3885" d="M319.68,210.27c-5.4,0-7.89,6.63-7.89,12s2.11,10.35,7.51,10.35,10.52-5.51,10.52-10.91-4.75-11.46-10.14-11.46Z"/>
        <path id="path3880" d="M270.27,232.25c-5.4,0-11.27,5.88-11.27,11.27s3.62,10.92,9,10.92,10.51-5.52,10.51-10.92S275.67,232.25,270.27,232.25Z"/>
        <path id="path4158" d="M311.84,350.52S308.69,342.45,307,336a42.07,42.07,0,0,1-1.19-4.75,36.53,36.53,0,0,0-1.63-6.84c-.13-.37-.29-.75-.47-1.14a43.81,43.81,0,0,0-2.48-4.55c-1-1.66-2.16-3.48-3.55-5.45-.38-.54-.77-1.11-1.15-1.7-3.61-5.5-6.34-9.59-8.26-12.5-1.25-1.87-2.16-3.25-2.77-4.18l-.75-1.13-.19-.29-.05-.08h0l.9-.7h0l-.89.7h0l.06.06.26.25,1,1c.78.81,1.93,2,3.46,3.69,2.38,2.59,5.67,6.3,9.89,11.41.45.55.87,1.1,1.26,1.63a21.06,21.06,0,0,1,1.91,3.2,31,31,0,0,1,1.23,3c.66,1.92,1.08,3.63,1.58,5.08.15.42.3.82.47,1.19a28.17,28.17,0,0,0,2.09,3.75,18.2,18.2,0,0,1,1.5,2.52,30,30,0,0,1,1.26,4.85c1,6.63,1.4,15.5,1.4,15.5Z"/>
        <path id="path4160" d="M300.1,290s3.24,6,5.54,11.41a41.07,41.07,0,0,1,2.18,5.87c.2.78.52,2.25,1.08,3.93h0c.26.77.56,1.59.92,2.39a22.18,22.18,0,0,0,3,4.67,62,62,0,0,1,4.94,7.13c7.37,12.59,10.13,17.78,10.14,17.79h0l-1,.6,1-.6h0s-4-4.44-12.85-16.12a37.94,37.94,0,0,1-4.32-7.51c-1-2.09-1.49-3.91-2.25-5.34a17.09,17.09,0,0,0-1.37-2.17h0c-1.08-1.48-2.16-2.63-2.51-3.35a34.71,34.71,0,0,1-2-6c-1.42-5.81-2.44-12.68-2.44-12.68Z"/>
        <path id="path4311" class="cls-10" d="M275.59,234.07c-1.78,0-2.75,3.7-2.75,5.47s1.18,3.58,3,3.58a3.76,3.76,0,0,0,3.46-3.58c0-1.77-1.89-5.47-3.66-5.47Z"/>
        <path id="path4313" class="cls-10" d="M327.31,214.69c-2.06,0-2.54,3.23-2.54,5.28a3.73,3.73,0,0,0,3.77,3.68c2,0,2.62-2.56,2.62-4.61s-1.8-4.35-3.85-4.35Z"/>
        <path id="path4317" class="cls-12" d="M211.66,286.87c-3.65,0-5.29,4.91-4.45,8.09,1,3.78,2.95,6,6.6,6s6.62-2.66,6.62-6-5.12-8.09-8.77-8.09Z"/>
        <path id="path4320" class="cls-12" d="M230.65,291.7c-1.68,0-3.49,1.22-3.11,2.68.46,1.75,1.37,2.75,3.05,2.75a2.92,2.92,0,0,0,3.06-2.75A2.81,2.81,0,0,0,230.65,291.7Z"/>
        <path id="path4339" class="cls-12" d="M225.29,300.79c-1.69,0-3.33,2.55-2.95,4,.46,1.75,1.37,2.75,3,2.75a2.92,2.92,0,0,0,3.06-2.75c0-1.51-1.48-4-3.16-4Z"/>
      </g>
    </g>
  </g>
</svg>
