<svg xmlns="http://www.w3.org/2000/svg" viewBox="0 0 408.66 347.86">
  <defs>
    <style>
      .cls-1 {
        fill: #fedb36;
      }

      .cls-2 {
        fill: #fe9801;
      }

      .cls-3 {
        fill: #fe4c01;
      }

      .cls-4 {
        fill: #f10213;
      }

      .cls-5 {
        fill: #fe9800;
      }

      .cls-6 {
        fill: #fedb35;
      }

      .cls-7 {
        fill: #544029;
      }
    </style>
  </defs>
  <title>Risorsa 1</title>
  <g id="Livello_2" data-name="Livello 2">
    <g id="Livello_1-2" data-name="Livello 1">
      <path class="cls-1" d="M204.39,347.58c-1.59.1-3.17.27-4.76.27H28c-14.6,0-22.43-5.54-27.47-19.41-.08-.21-.37-.35-.56-.52V317.56c5.68-14.1,14.59-26.37,22.35-39.28Q101.28,147,180.49,15.79C185.21,7.93,191,1.85,200.48.3a7.85,7.85,0,0,1,3.91-.07q0,16.5-.08,33a8.52,8.52,0,0,0-7.61,4.93c-.86,1.64-1.84,3.23-2.75,4.85L125.32,163.88Q86.38,232.46,47.34,301c-4.5,7.85.39,14.42,8.55,14.36,45.09-.33,90.18-.16,135.27-.15,4.38,0,8.77.09,13.16.14Q204.35,331.45,204.39,347.58Z"/>
      <path class="cls-2" d="M204.39,347.58q0-16.12-.07-32.26c0-.14,0-.27,0-.41,1.06.06,2.12.18,3.18.18h146A17.26,17.26,0,0,0,356,315c5.85-.77,8.89-6,6.61-11.48a38.83,38.83,0,0,0-2-3.9q-25.21-44.35-50.44-88.71L238.36,84.83q-13.11-23-26.23-46.07c-1.72-3-3.87-5.45-7.79-5.18l0-.35q0-16.5.08-33c9.88.27,17.1,4.91,22.15,13.29q88.95,147.56,177.9,295.11c11,18.3-.65,38.7-22.18,39-14.62.2-29.25.05-43.87,0Z"/>
      <path class="cls-3" d="M204.32,315.32c-4.39-.05-8.78-.14-13.16-.14-45.09,0-90.18-.18-135.27.15-8.16.06-13-6.51-8.55-14.36q39.21-68.42,78-137.09L194,43c.91-1.62,1.89-3.21,2.75-4.85a8.52,8.52,0,0,1,7.61-4.93l0,.35c0,4.85-.13,9.7,0,14.54.11,3.62-.76,7.33.72,10.87a3.86,3.86,0,0,0-.76,0c-1.24.7-1.66,2-2.3,3.15Q185,92.06,168,122q-49.14,86.58-98.26,173.15c-.55,1-1.67,1.77-1,3.31q25.08,0,50.21,0,42.69,0,85.37-.12v.83q0,7.86,0,15.71C204.35,315.05,204.34,315.18,204.32,315.32Z"/>
      <path class="cls-4" d="M204.36,314.91q0-7.86,0-15.71c1.73,0,3.46-.13,5.18-.13H337.17c4.25,0,4.39-.27,2.34-3.83-1.65-2.88-3.33-5.75-5-8.64Q302.33,230,270.14,173.3,237.62,116.14,205.08,59c-1.48-3.54-.61-7.25-.72-10.87-.15-4.84,0-9.69,0-14.54,3.92-.27,6.07,2.18,7.79,5.18q13.14,23,26.23,46.07l71.77,126.11q25.23,44.35,50.44,88.71a38.83,38.83,0,0,1,2,3.9c2.28,5.45-.76,10.71-6.61,11.48a17.26,17.26,0,0,1-2.39.07h-146C206.48,315.09,205.42,315,204.36,314.91Z"/>
      <path class="cls-5" d="M205.08,59q32.53,57.15,65.06,114.31,32.22,56.64,64.4,113.3c1.64,2.89,3.32,5.76,5,8.64,2.05,3.56,1.91,3.79-2.34,3.83H209.5c-1.72,0-3.45.09-5.18.13,0-.28,0-.55,0-.83,0-3.14,0-6.27,0-9.41,7-.33,12.47-3.43,16.1-9.49,6.61-11.07-.51-27.13-16.1-27.66V235.44c11.66-1.8,14.23-4.65,14.28-16.32.05-12.88.78-25.73,1.31-38.6.74-18,1.41-36.08,1.83-54.12.13-5.77-2.86-10.06-8.19-12.62a27.88,27.88,0,0,0-9.23-2.2V59A3.86,3.86,0,0,1,205.08,59Z"/>
      <path class="cls-6" d="M204.32,235.44q0,8.19,0,16.37c-5.07.39-9.63,2-13.06,5.9-4.87,5.51-6.36,11.86-3.83,18.84,2.83,7.83,8.79,11.63,16.89,12.41,0,3.14,0,6.27,0,9.41q-42.68.06-85.37.12-25.11,0-50.21,0c-.67-1.54.45-2.35,1-3.31Q118.86,208.6,168,122q17-30,34-59.9c.64-1.12,1.06-2.45,2.3-3.15v52.6c-13.71,1.7-17.64,6.24-17.37,20.07.59,29.11,2.83,58.16,3.13,87.28a54.11,54.11,0,0,0,.27,6.37c.69,5.36,3.55,8.3,8.85,9.31C200.9,234.94,202.61,235.17,204.32,235.44Z"/>
      <path class="cls-7" d="M204.32,235.44c-1.71-.27-3.42-.5-5.12-.83-5.3-1-8.16-4-8.85-9.31a54.11,54.11,0,0,1-.27-6.37c-.3-29.12-2.54-58.17-3.13-87.28-.27-13.83,3.66-18.37,17.37-20.07a27.88,27.88,0,0,1,9.23,2.2c5.33,2.56,8.32,6.85,8.19,12.62-.42,18-1.09,36.09-1.83,54.12-.53,12.87-1.26,25.72-1.31,38.6C218.55,230.79,216,233.64,204.32,235.44Z"/>
      <path class="cls-7" d="M204.31,289c-8.1-.78-14.06-4.58-16.89-12.41-2.53-7-1-13.33,3.83-18.84,3.43-3.89,8-5.51,13.06-5.9,15.59.53,22.71,16.59,16.1,27.66C216.78,285.53,211.34,288.63,204.31,289Z"/>
    </g>
  </g>
</svg>
