<svg xmlns="http://www.w3.org/2000/svg" viewBox="0 0 406.56 378.75">
  <defs>
    <style>
      .cls-1 {
        fill: #acacab;
      }

      .cls-2 {
        fill: #b8b8b8;
      }

      .cls-3 {
        fill: #8e8e8d;
      }

      .cls-4 {
        fill: #70706f;
      }

      .cls-5 {
        fill: #cecece;
      }

      .cls-6 {
        fill: #eaeaea;
      }
    </style>
  </defs>
  <title>Risorsa 1</title>
  <g id="Livello_2" data-name="Livello 2">
    <g id="Livello_1-2" data-name="Livello 1">
      <path class="cls-1" d="M235.12,378.55l-63.88,0c.35-11.43-.83-22.88.71-34.3.26-2,.71-4.19-.53-6.13.5-8.32.82-16.65,1.55-24.95,1.38-15.87,3-31.71,5.23-47.49a648.13,648.13,0,0,1,18.39-88c12.9-44.86,30.9-87.37,57.79-125.78A285.1,285.1,0,0,1,299.08,1.7,27.67,27.67,0,0,1,301.67,0l-4.33,11.94c-17.2,47.53-30.06,96.25-39.92,145.79q-8.52,42.77-13.74,86.06c-2.53,20.84-4.23,41.74-6,62.64-.08.92,0,1.86,0,2.79.19,2.72-1.49,5.41-.13,8.15,0,7.11-1.35,14.16-1.47,21.22Q235.68,358.57,235.12,378.55Z"/>
      <path class="cls-2" d="M171.42,338.14c1.24,1.94.79,4.16.53,6.13-1.54,11.42-.36,22.87-.71,34.3H109c-.17-10.2.64-20.46-1-30.56-.67-4.13.31-8.43-1.47-12.4-.47-16.21-2.65-32.25-5-48.26a737.31,737.31,0,0,0-19-90.64,718,718,0,0,0-33.75-96.49c-.51-1.16-.89-2.38-1.61-4.34A165.27,165.27,0,0,1,73.72,114c34.13,28.31,55.81,65,71.24,105.88,11.33,30,18.29,61.2,22.88,92.91,1.1,7.61,1.74,15.28,2.59,22.92C170.53,336.63,170.37,337.63,171.42,338.14Z"/>
      <path class="cls-3" d="M235.12,378.55q.57-20,.92-40c.12-7.06,1.46-14.11,1.47-21.22,1.4-2.54,1.47-5.32,1.47-8.12,4.22-26.48,9.84-52.64,18.45-78.08,11-32.42,25.82-62.8,47.69-89.38,15.13-18.41,32.61-34.13,53.66-45.6l0-.06c.29,2.57-1.44,4.47-2.35,6.61A754.7,754.7,0,0,0,312,245.87a660.07,660.07,0,0,0-11.5,78.79c-.15,1.79-2.07,3.69,0,5.49,1.08,3.85-.57,7.55-1.17,11.15a156.45,156.45,0,0,0-2,37.29Z"/>
      <path class="cls-4" d="M297.36,378.59a156.45,156.45,0,0,1,2-37.29c.6-3.6,2.25-7.3,1.17-11.15,2.54-5.12,3.14-10.83,4.85-16.21,16.08-50.67,49.3-84.14,100.1-100.07l.56.6a234.59,234.59,0,0,0-24.88,47.88,308.68,308.68,0,0,0-17.6,74.11,362.39,362.39,0,0,0-2.35,39c0,2.11-.1,3.35-2.89,3.33C338,378.59,317.69,378.62,297.36,378.59Z"/>
      <path class="cls-5" d="M106.56,335.61c1.78,4,.8,8.27,1.47,12.4,1.63,10.1.82,20.36,1,30.56-20.34,0-40.69.06-61,.17-2.32,0-2.93-.87-2.92-3A334.06,334.06,0,0,0,41,323a294.89,294.89,0,0,0-16.45-62.13A218.17,218.17,0,0,0,1.15,216.16a10.72,10.72,0,0,1-.83-1.78l.21-.21c7.32,1.11,13.92,4.33,20.53,7.36A145.12,145.12,0,0,1,65,252.07c15.4,15.76,26.19,34.32,33.58,55a189.75,189.75,0,0,1,7.28,26.82A9.6,9.6,0,0,0,106.56,335.61Z"/>
      <path class="cls-6" d="M239,309.25c0,2.8-.07,5.58-1.47,8.12-1.36-2.74.32-5.43.13-8.15Z"/>
      <path class="cls-3" d="M358.78,96.19l.24-.28-.29.22Z"/>
      <path class="cls-5" d="M.32,214.38l-.32-.5.52.3Z"/>
      <path class="cls-4" d="M405.5,213.87c.32-.05.82-.25.94-.12.33.37-.06.58-.38.72Z"/>
    </g>
  </g>
</svg>
