<?xml version="1.0" encoding="UTF-8"?>
<!DOCTYPE svg PUBLIC "-//W3C//DTD SVG 1.1//EN" "http://www.w3.org/Graphics/SVG/1.1/DTD/svg11.dtd">
<svg version="1.1" xmlns="http://www.w3.org/2000/svg" xmlns:xlink="http://www.w3.org/1999/xlink" x="0" y="0" width="546" height="672" viewBox="0, 0, 546, 672">
  <defs>
    <clipPath id="Clip_1">
      <path d="M-0,2.457 L545.479,2.457 L545.479,671.79 L-0,671.79 z"/>
    </clipPath>
    <clipPath id="Clip_2">
      <path d="M-0,2.457 L545.479,2.457 L545.479,671.79 L-0,671.79 z"/>
    </clipPath>
  </defs>
  <g id="Layer_1">
    <g clip-path="url(#Clip_1)">
      <path d="M2.587,400.551 C2.587,400.551 0.69,408.132 6.381,411.919 C12.068,415.716 43.806,445.085 157.052,452.669 C270.284,460.25 170.317,439.873 170.317,439.873 L2.587,400.551" fill="#731619"/>
      <path d="M541.737,135.324 C536.886,149.04 412.78,243.67 390.061,285.852 C367.346,328.038 321.919,443.772 245.122,452.427 C168.333,461.076 41.783,431.872 16.894,415.646 C-7.973,399.423 -4.739,386.442 22.312,370.219 C49.35,353.99 93.695,351.823 109.924,342.094 C126.15,332.363 127.239,329.119 138.04,329.119 C148.862,329.119 248.37,335.604 284.067,292.337 C319.753,249.07 363.027,133.332 381.409,91.157 C399.798,48.968 434.42,11.112 467.943,2.457 C467.943,2.457 565.534,68.26 541.737,135.324" fill="#D8232B"/>
    </g>
    <path d="M135.114,331.705 C134.379,336.189 149.247,343.976 187.663,342.912 C226.065,341.841 216.475,338.905 216.475,338.905 L199.661,329.843 C199.661,329.843 166.334,334.11 153.247,332.237 C140.189,330.368 135.387,330.109 135.114,331.705" fill="#2F0500"/>
    <path d="M541.559,133.221 C541.559,133.221 491.74,265.3 485.254,337.764 C478.765,410.246 478.765,427.549 478.765,427.549 L463.145,429.363 C463.145,429.363 471.191,303.156 462.543,275.03 C453.891,246.915 443.062,246.915 416.031,253.4 C416.031,253.4 451.504,214.613 472.29,198.338 C493.073,182.053 538.724,139.311 541.559,133.221" fill="#A71F26"/>
    <path d="M441.809,249.946 C441.809,249.946 467.446,252.368 467.446,288.74 C467.446,321.71 463.145,429.363 463.145,429.363 L457.737,425.894 C457.737,425.894 459.127,302.939 457.398,286.314 C455.665,269.686 452.89,252.025 441.809,249.946" fill="#881A1F"/>
    <path d="M474.498,15.939 C474.498,15.939 535.304,64.582 532.605,86.205 C529.91,107.825 527.205,126.742 523.152,111.874 C519.102,97.017 525.857,72.685 520.45,86.205 C515.049,99.718 524.51,99.718 509.635,111.874 C494.774,124.04 491.323,132.52 499.429,109.553 C507.545,86.576 508.056,62.465 502.635,53.007 C497.227,43.543 474.498,15.939 474.498,15.939" fill="#E36A63"/>
    <g clip-path="url(#Clip_2)">
      <path d="M352.88,344.306 C352.88,344.306 355.576,268.632 363.695,228.095 C371.801,187.551 366.397,133.493 375.851,106.473 C385.318,79.45 431.263,22.694 448.836,17.283 C466.392,11.882 451.531,10.531 452.886,49.717 C454.237,88.907 470.459,114.583 467.74,138.904 C465.045,163.229 451.531,187.551 465.045,178.098 C478.551,168.637 498.827,155.117 498.827,155.117 C498.827,155.117 467.74,174.038 432.61,211.883 C397.47,249.714 371.801,303.772 352.88,344.306" fill="#8A1A20"/>
      <path d="M89.824,641.603 C89.824,641.603 90.727,665.031 112.35,668.637 C133.969,672.234 206.93,676.753 257.393,659.621 C307.836,642.502 332.167,628.086 353.79,595.658 C375.413,563.227 89.824,641.603 89.824,641.603" fill="#80181D"/>
    </g>
    <path d="M459.823,425.551 C459.823,425.551 458.776,438.014 460.512,439.411 C462.241,440.786 464.671,441.815 471.247,440.786 C477.834,439.747 478.17,440.094 478.17,439.054 C478.17,438.014 477.48,422.779 477.48,422.779 L459.823,425.551" fill="#6B1417"/>
    <path d="M129.458,485.754 C144.599,462.409 171.804,437.997 188.923,356.926 C206.034,275.842 200.623,227.188 204.228,182.15 C207.833,137.105 232.158,90.261 249.277,63.227 C266.395,36.2 288.015,14.584 303.331,23.59 C318.647,32.599 370.909,76.741 379.001,109.172 C387.114,141.606 389.809,165.032 373.6,227.195 C357.378,289.355 348.376,347.014 363.695,419.982 C379.001,492.943 403.329,576.737 327.663,622.674 C251.986,668.636 152.75,670.407 107.835,659.62 C85.323,654.227 83.513,616.374 87.118,589.361 C90.727,562.331 107.835,519.074 129.458,485.754" fill="#D8232B"/>
    <path d="M135.765,485.754 C130.893,492.471 142.072,505.564 197.928,504.658 C253.781,503.755 282.608,508.277 301.539,471.338 C320.453,434.392 324.957,335.3 324.048,241.605 C323.151,147.913 314.142,80.346 309.638,55.118 C305.134,29.9 289.821,9.173 263.694,48.811 C237.57,88.455 216.846,160.527 207.833,251.51 C198.828,342.503 192.528,407.368 135.765,485.754" fill="#80181D"/>
    <path d="M155.592,501.967 C155.592,501.967 215.04,424.487 223.149,340.711 C231.269,256.921 222.253,196.567 250.173,163.23 C278.11,129.889 319.543,141.607 319.543,141.607 C319.543,141.607 334.47,348.597 315.549,427.875 C296.632,507.157 285.323,499.258 240.268,503.755 C203.413,507.448 163.695,504.658 155.592,501.967" fill="#B8B9B8"/>
    <path d="M244.773,517.283 C244.773,517.283 303.16,517.433 318.871,480.288 C327.677,459.47 331.699,430.402 333.96,411.873 C340.085,361.96 343.42,321.328 346.129,351.068 C348.835,380.797 350.182,425.387 355.576,451.063 C360.976,476.739 374.504,534.839 335.314,575.383 C296.135,615.927 250.173,633.486 267.743,617.274 C285.324,601.069 320.453,602.424 338.005,561.873 C355.576,521.339 351.533,513.219 351.533,513.219 C351.533,513.219 312.337,584.847 255.584,601.069 C198.828,617.274 193.417,628.086 185.311,619.983 C177.212,611.863 232.614,606.47 243.425,567.273 C254.237,528.094 244.773,517.283 244.773,517.283" fill="#E36A63"/>
    <g>
      <path d="M331.258,72.685 C331.258,72.685 336.921,164.742 343.679,206.63 C350.427,248.521 348.835,279.451 358.281,236.204 C367.749,192.962 378.556,176.74 381.251,156.475 C383.971,136.206 379.904,113.229 375.851,106.473 C371.802,99.718 373.156,90.261 369.096,119.983 C365.043,149.716 369.719,177.758 357.549,183.158 C345.397,188.57 346.129,153.769 344.775,129.44 C343.42,105.119 356.934,92.96 360.976,92.96 C365.043,92.96 333.96,38.906 331.258,72.685" fill="#E36A63"/>
      <path d="M135.317,532.151 C135.317,532.151 102.882,619.983 125.849,636.202 C148.82,652.414 208.292,652.414 208.292,652.414 C208.292,652.414 117.75,676.729 102.882,638.897 C88.018,601.069 117.75,549.714 135.317,532.151" fill="#961C22"/>
    </g>
    <path d="M346.129,317.282 C346.129,317.282 338.005,386.197 350.182,429.439 C362.348,472.685 373.156,529.438 335.314,575.383 C297.483,621.327 254.237,626.738 269.094,626.738 C283.952,626.738 348.835,601.069 360.976,561.872 C373.156,522.683 356.934,424.039 352.88,376.747 C348.835,329.441 346.129,317.282 346.129,317.282" fill="#961C22"/>
    <g>
      <path d="M422.888,251.408 C422.888,251.408 435.61,233.716 444.455,227.637 C453.303,221.553 531.797,153.559 540.631,135.324 C540.631,135.324 490.893,185.622 461.594,208.292 C432.296,230.951 417.442,250.967 416.031,253.4 L422.888,251.408" fill="#6B1417"/>
      <path d="M32.042,375.995 C32.042,375.995 -0.683,392.031 32.686,411.929 C66.052,431.827 103.915,433.748 103.915,433.748 C103.915,433.748 28.829,404.873 32.042,392.676 C35.255,380.488 39.095,375.995 46.151,372.781 C53.221,369.576 41.027,368.928 32.042,375.995" fill="#E36A63"/>
    </g>
  </g>
</svg>
