<svg xmlns="http://www.w3.org/2000/svg" viewBox="0 0 367.26 324.8">
  <defs>
    <style>
      .cls-1 {
        fill: #0b090a;
      }

      .cls-2 {
        fill: #683c11;
      }

      .cls-3 {
        fill: #f39200;
      }

      .cls-4 {
        fill: #fefefe;
      }

      .cls-5 {
        fill: #161517;
      }
    </style>
  </defs>
  <title>Risorsa 1</title>
  <g id="Livello_2" data-name="Livello 2">
    <g id="Livello_1-2" data-name="Livello 1">
      <path class="cls-1" d="M337.1,228c-9.71-6.92-21.11-9.72-32.25-13-15.94-4.75-26.59-14.84-32.52-30.29C258.16,147.72,243.5,111,229.82,73.93,223.13,55.8,205.42,44.77,185,50c-24.09,6.11-46-7.25-52.75-31.14-1.22-4.29-2.37-8.6-3.65-12.88C127.34,1.81,124.92.09,120.64,0a89.14,89.14,0,0,0-16,1.43c-37.94,6.19-70.09,37.31-77,74.76a5,5,0,0,1-2.68,3.93c-28.93,16.34-33.69,56-9,78.19q33.5,30.17,66.8,60.53a9.76,9.76,0,0,1,1.77,1.59l3.39,3.06a4,4,0,0,1,.68.62L105.12,239c11.58,10.61,67.37,59.42,77.35,67.19a4.25,4.25,0,0,1,1.14.8l26.94,16.27a4.25,4.25,0,0,1,1.31.6,4.52,4.52,0,0,1,1.27.52,5.46,5.46,0,0,1,1.28.3c13,.15,76.29,0,113.47,0,20.29,0,38.39-16.39,39.29-36.12C368.34,263,358,242.8,337.1,228ZM187.71,65.41c9-4.52,20.35-.67,25.41,8.35a22.63,22.63,0,0,1,1.45,3c1.34,3.47,4.11,7.25,3.5,10.36-.67,3.4-6,3.44-9.12,5.2-4.13,2.33-5.74,6-4,9.93s5.87,5.54,10.28,3.81c.23-.09.43-.28.66-.36,2.86-1,5.93-4.13,8.21-3,2,1,2.44,5.12,3.54,7.88,1.6,4,3.08,8.11,4.78,12.1a2.73,2.73,0,0,1-1.53,3.62c-2.75,1.09-5.44,2.34-8.09,3.64-4.33,2.12-5.92,6.23-4.08,10.2,1.73,3.72,5.87,5.15,10.14,3.48.35-.13.67-.33,1-.46,3-1.06,6.31-4.38,8.56-3.16s2.71,5.52,3.89,8.5c1.59,4,3,8.16,4.7,12.13.83,1.92.69,2.92-1.39,3.64a32.17,32.17,0,0,0-5.06,2.34c-3.76,2-5.09,5.73-3.53,9.44s5.39,5.52,9.53,4.19a18.21,18.21,0,0,0,1.71-.72c5.11-2.22,5.07-2.21,7.07,2.81,2.84,7.14,5.15,14.52,9.57,20.93.89,1.3.88,2.1-.47,3-7.28,5-14.66,9.82-22.21,14.4-2.35,1.43-2.41-.63-3-1.69q-14.25-24.47-28.42-49-17.66-30.45-35.32-60.9a34.58,34.58,0,0,1-5-17.48C171.09,80.28,176.6,71,187.71,65.41ZM43.06,76.21A82.11,82.11,0,0,1,63,40c1.66-1.79,2.75-1.73,4.57-.45,15.55,11,23.38,26,24,41.82,0,14.63-3.47,25.08-10,34.55-1.51,2.19-2.41,3.09-4.74.48C66,104.42,55.11,92.61,44.2,80.8A4.29,4.29,0,0,1,43.06,76.21ZM328.2,309.68c-29.68-.09-59.41,1.18-89-.83a105.44,105.44,0,0,1-63.6-26.59c-25.84-22.73-51.15-46.06-76.66-69.15C75.79,192.2,52.75,171.2,29.58,150.36c-6.69-6-12.47-12.39-14.37-21.63C12.47,115.42,19.06,100.67,30.94,94c2.46-1.4,3.9-1.28,5.9.93Q70.79,132.29,105,169.47c.84.92,1.66,1.87,2.51,2.78,3.89,4.16,6.41,4.57,11.53,1.88,3.63-4.62,3.68-7.5-.27-11.87-9-10-18.15-19.89-27.26-29.81-1.21-1.32-2.13-2.11-.53-4.2,24.91-32.52,19.86-73.42-12.08-99-.39-.31-.8-.59-1.43-1.07C88.7,21,100.53,16.63,113.53,15.54c1.55-.13,2.17.25,2.56,1.88.49,2.06,1,4.13,1.59,6.14q10.66,33.67,44,41.64a19,19,0,0,1,2.31.87,48.3,48.3,0,0,0-7.72,18.13c-2.1,11.38,0,22,5.82,31.92q31.72,54.66,63.4,109.34c1.5,2.58,1.87,3.73-1.42,5.27-7.86,3.7-15.73,7.37-23.67,10.89-2.54,1.12-4.37,1-6.68-.83a226.2,226.2,0,0,1-27.39-26.48c-4-4.5-6.86-4.88-12.09-1.78-3,4.76-3,7.37.24,11.14,20.28,23.57,44.25,42.12,73.14,54.13A190.58,190.58,0,0,0,301,292.39c15.84,0,31.68,0,47.52,0,.72,0,1.43.11,2.17.17C348.29,302.12,338.72,309.71,328.2,309.68Zm20.93-32.31c-20.8-.26-41.64.8-62.41-.63-26.56-1.83-51.32-9.84-74.86-23.64,10.3-4.65,19.9-9.26,29.21-14.44A350.66,350.66,0,0,0,273.86,218c1-.71,1.92-2.08,3.5-.69,9.15,8,20.42,11.55,31.83,14.67,13.61,3.73,25.24,10.33,33.47,22.14a56.36,56.36,0,0,1,8.71,20.4C351.83,276.61,351.48,277.4,349.13,277.37Z"/>
      <path class="cls-2" d="M118.68,174c3.63-4.62,3.67-7.5-.27-11.87-9-10-18.15-19.89-27.26-29.81-1.22-1.32-2.13-2.11-.53-4.2,24.9-32.52,19.85-73.42-12.09-99-.39-.31-.79-.59-1.43-1.07,11.29-7.17,23.12-11.52,36.11-12.61,1.53-.13,2.16.24,2.55,1.8A91.92,91.92,0,0,0,118.93,28q11.38,29.75,42.44,37.16a19.66,19.66,0,0,1,2.31.87A48.09,48.09,0,0,0,156,84.11c-2.09,11.38,0,22,5.82,31.92q31.72,54.66,63.4,109.34c1.5,2.58,1.87,3.73-1.41,5.27-7.87,3.7-15.73,7.37-23.68,10.89-2.54,1.12-4.37,1-6.68-.83A226.94,226.94,0,0,1,166,214.22c-4-4.5-6.85-4.88-12.08-1.78l-12.27-13.58c3-4.28,3.13-7.81.4-10.79s-6.2-3.27-10.73-.52C127.18,183,123.26,178.2,118.68,174Z"/>
      <path class="cls-3" d="M141.66,198.86l12.27,13.58c-3,4.76-3,7.37.23,11.14,20.28,23.57,44.26,42.12,73.14,54.13a190.6,190.6,0,0,0,73.42,14.59c15.84,0,31.68,0,47.52,0,.71,0,1.42.11,2.16.17-2.43,9.55-12,17.14-22.52,17.11-29.68-.09-59.4,1.18-89-.83a105.47,105.47,0,0,1-63.61-26.59c-25.83-22.73-51.14-46.06-76.66-69.15-23.11-20.91-46.16-41.91-69.33-62.75-6.69-6-12.46-12.39-14.37-21.63-2.74-13.31,3.86-28.06,15.73-34.77,2.47-1.4,3.9-1.28,5.91.93q33.94,37.39,68.11,74.58c.84.92,1.65,1.87,2.5,2.78,3.9,4.16,6.42,4.57,11.54,1.88,4.58,4.16,8.5,9,12.65,13.51-1.82,2.35-3,4.82-1.9,7.9C131.26,200.54,136,201.87,141.66,198.86Z"/>
      <path class="cls-4" d="M170.15,91.6c.63-11.41,6.14-20.72,17.25-26.28,9-4.53,20.34-.67,25.41,8.35a22.63,22.63,0,0,1,1.45,3c1.33,3.47,4.11,7.25,3.5,10.36-.67,3.4-6,3.44-9.12,5.2-4.14,2.33-5.74,6-4.06,9.93s5.87,5.54,10.29,3.81c.23-.09.42-.28.65-.36,2.87-.95,5.93-4.13,8.22-3,2,1,2.44,5.12,3.53,7.88,1.6,4,3.09,8.11,4.79,12.1.8,1.89.41,2.85-1.49,3.6-2.76,1.09-5.47,2.35-8.14,3.66-4.32,2.12-5.92,6.23-4.08,10.2,1.74,3.72,5.88,5.15,10.15,3.48.34-.13.66-.33,1-.46,3-1.06,6.32-4.38,8.56-3.16s2.72,5.52,3.89,8.5c1.59,4,3,8.15,4.7,12.13.83,1.92.69,2.92-1.38,3.64a32.61,32.61,0,0,0-5.06,2.33c-3.76,2.06-5.1,5.74-3.54,9.45s5.39,5.52,9.54,4.19c.58-.19,1.14-.47,1.71-.72,5.1-2.22,5.07-2.21,7.07,2.81,2.84,7.14,5.15,14.52,9.56,20.93.9,1.3.88,2.1-.47,3-7.28,5-14.65,9.82-22.2,14.4-2.36,1.43-2.42-.63-3-1.69q-14.25-24.47-28.42-49-17.66-30.45-35.31-60.9A34.48,34.48,0,0,1,170.15,91.6Z"/>
      <path class="cls-2" d="M211.54,253c10.31-4.65,19.9-9.26,29.22-14.44a351.82,351.82,0,0,0,32.78-20.66c1-.71,1.93-2.08,3.51-.69,9.14,8,20.42,11.55,31.82,14.67,13.62,3.73,25.24,10.33,33.48,22.14a56.34,56.34,0,0,1,8.7,20.4c.47,2.09.12,2.88-2.23,2.85-20.81-.26-41.65.8-62.42-.63C259.85,274.82,235.09,266.81,211.54,253Z"/>
      <path class="cls-2" d="M91.19,81.31c0,14.63-3.47,25.08-10,34.55-1.52,2.19-2.42,3.09-4.75.48-10.69-12-21.61-23.82-32.52-35.63a4.27,4.27,0,0,1-1.14-4.59A82,82,0,0,1,62.66,39.94c1.65-1.79,2.74-1.73,4.56-.45C82.78,50.45,90.61,65.49,91.19,81.31Z"/>
      <path class="cls-5" d="M141.66,198.86c-5.7,3-10.4,1.68-12.23-3.41-1.11-3.08.08-5.55,1.9-7.9,4.53-2.75,7.9-2.58,10.73.52S144.66,194.58,141.66,198.86Z"/>
      <line class="cls-5" x1="61.56" y1="199.8" x2="81.03" y2="217.5"/>
    </g>
  </g>
</svg>
