<svg xmlns="http://www.w3.org/2000/svg" viewBox="0 0 359.4 179.75">
  <defs>
    <style>
      .cls-1 {
        fill: #d6dfee;
      }

      .cls-2 {
        fill: #ee3f4a;
      }

      .cls-3 {
        fill: #e63844;
      }

      .cls-4 {
        fill: #c0cee7;
      }

      .cls-5 {
        fill: #c1cee7;
      }

      .cls-6 {
        fill: #c1cfe7;
      }

      .cls-7 {
        fill: #e63945;
      }

      .cls-8 {
        fill: #c1cee6;
      }

      .cls-9 {
        fill: #d7dbea;
      }

      .cls-10 {
        fill: #d7dbe9;
      }

      .cls-11 {
        fill: #fd4e56;
      }
    </style>
  </defs>
  <title>Risorsa 1</title>
  <g id="Livello_2" data-name="Livello 2">
    <g id="Livello_1-2" data-name="Livello 1">
      <path class="cls-1" d="M346.57,107.68c4.29,1.56,5.81,5.66,7.71,9.09,4.5,8.13,6.36,16.88,4.26,26.17a4.65,4.65,0,0,1-1.49,2.91c-3.95,1.45-7.9,2.92-11.86,4.36-20.66,7.47-42.33,8.64-63.94,9.73-9,.45-18.08,1.4-27.15.89a6.11,6.11,0,0,0-1.76.46l-10.57-.23c-12.42-.82-24.84-1.6-37.25-2.48-12.65-.89-25.23-2.39-37.79-4.14-12.91-1.8-25.78-3.92-38.71-5.5-14.69-1.79-29.43-3.05-44.2-4C64.89,143.67,46,143.42,27,143.73l-.73-.25A47.3,47.3,0,0,1,24,129.67c-.2-17.71,1-35.35,2.51-53,.28-3.39-.63-7.19,1.57-10.37,23,1.55,40.31,12.1,51.37,32.47,2.78,5.14,5.3,10.42,7.87,15.67a4.6,4.6,0,0,0,3.47,3c6,1.15,11.91,2.52,17.88,3.74,17.92,3.66,36,6,54.21,8.06,20.55,1.48,41.1,2.67,61.73,2.44,20.92-.23,41.85-.15,62.77,0,11.44.07,22.5-1.68,33-6.17C330.25,121.29,339.57,116.16,346.57,107.68Z"/>
      <path class="cls-2" d="M162.88,129.24c-18.17-2-36.29-4.4-54.21-8.06-6-1.22-11.9-2.59-17.88-3.74a4.6,4.6,0,0,1-3.47-3c-2.57-5.25-5.09-10.53-7.87-15.67C68.39,78.44,51.07,67.89,28.08,66.34a4.41,4.41,0,0,0-.28-.58c-.16-4.45.62-8.8,1.28-13.18,1.13-7.51,2.15-15,3.21-22.57,11.09.58,18.79,6.31,23.87,15.86,4.4,8.24,10.82,14.22,19.59,17.4,12.46,4.51,24.23,2.83,34.83-5.1,5.57-4.15,10.7-8.87,16-13.34,2.63-2.09,5.2-4.23,7.88-6.24,4.37-3.29,9.15-3.81,14-1.33a12.49,12.49,0,0,1,7.26,12.06c-.07,5.54,0,11.08,0,17.26,8.95-6.1,16.46-12.67,22.57-20.78,3-2.93,5-6.6,7.41-9.91A89.22,89.22,0,0,1,197,41.06c-1.73,2.57-3.47,5.14-5.19,7.72-5.35,8-5.35,8,2.83,13a5.11,5.11,0,0,1,.62.41c1.06.9,1.78.41,2.38-.57,3.18-5.16,7.09-9.84,9.77-15.31A27.11,27.11,0,0,1,216,50.78c-1.43,3.74-4.1,6.73-6.25,10-5.11,7.83-5.1,7.69,2.62,12.83,2.13,1.42,2.87.69,4-1,3.45-5.29,7-10.5,10.55-15.75L234.69,62c-2.36,3.64-4.68,7.31-7.08,10.92-5.05,7.6-5,7.51,2.53,12.58,1.91,1.28,2.79,1.21,4.05-.73,3.44-5.31,7.09-10.47,10.66-15.69,4.32,3.32,8.6,6.7,13,10a13.5,13.5,0,0,1,5.81,10.7c-2.41,9.72-7.55,13.14-17.46,11.63-1.84-.29-3.7-.47-5.53-.81-12.45-2.36-24.82-5.17-37.64-4.87s-23,5.57-30.63,15.8C168.34,116.9,166,123.28,162.88,129.24Z"/>
      <path class="cls-3" d="M241.77,161.06l10.57.23c1.74.07,3.47.21,5.21.21q39.52.1,79.07.18a131.21,131.21,0,0,1-43.69,13.25c-32.22,3.82-64.63,4.54-97.05,4.57-54,.06-108-.42-162,.25C14.48,180-1.54,166.45.12,145.53c.05-.62.05-1.25.08-1.87l26.11-.18.73.25c3.77,10.29,14.9,17.82,26.48,17.82q92.31,0,184.63,0C239.36,161.54,240.65,161.9,241.77,161.06Z"/>
      <path class="cls-4" d="M162.88,129.24c3.1-6,5.46-12.34,9.49-17.76C180,101.25,190.13,96,203,95.68s25.19,2.51,37.64,4.87c1.83.34,3.69.52,5.53.81,9.91,1.51,15.05-1.91,17.46-11.63A417.53,417.53,0,0,0,318,103.32c9.5,1.74,19.12,2.45,28.57,4.36-7,8.48-16.32,13.61-26.18,17.82-10.51,4.49-21.57,6.24-33,6.17-20.92-.14-41.85-.22-62.77,0C204,131.91,183.43,130.72,162.88,129.24Z"/>
      <path class="cls-5" d="M26.31,143.48.2,143.66a426.76,426.76,0,0,1,2-47.15c.86-9.73,2.16-19.4,3.18-29.11a6,6,0,0,1,.71-1.64H27.8a4.41,4.41,0,0,1,.28.58c-2.2,3.18-1.29,7-1.57,10.37C25,94.32,23.8,112,24,129.67A47.3,47.3,0,0,0,26.31,143.48Z"/>
      <path class="cls-1" d="M178.31,45.8c-6.11,8.11-13.62,14.68-22.57,20.78,0-6.18-.06-11.72,0-17.26a12.49,12.49,0,0,0-7.26-12.06c-4.85-2.48-9.63-2-14,1.33-2.68,2-5.25,4.15-7.88,6.24-1.77-5.38-5.41-10-6.36-15.71-.55-3.24-1-6.53.32-9.73,5.66-5.48,12.42-8.21,20.26-7.4,6.51.68,11.78,4.33,17,8A57.41,57.41,0,0,1,178.31,45.8Z"/>
      <path class="cls-6" d="M178.31,45.8A57.41,57.41,0,0,0,157.79,20c-5.18-3.69-10.45-7.34-17-8-7.84-.81-14.6,1.92-20.26,7.4C122.66,5,140.87-6.45,158.13,4.12a69.31,69.31,0,0,1,27.59,31.77C183.27,39.2,181.28,42.87,178.31,45.8Z"/>
      <path class="cls-7" d="M27.8,65.76H6.12A111.79,111.79,0,0,1,9.39,45.63C12,35.58,21.5,29.37,32.29,30c-1.06,7.53-2.08,15.06-3.21,22.57C28.42,57,27.64,61.31,27.8,65.76Z"/>
      <path class="cls-8" d="M336.62,161.68q-39.54-.09-79.07-.18c-1.74,0-3.47-.14-5.21-.21a6.11,6.11,0,0,1,1.76-.46c9.07.51,18.12-.44,27.15-.89,21.61-1.09,43.28-2.26,63.94-9.73,4-1.44,7.91-2.91,11.86-4.36-1.68,4.48-5.05,7.52-8.91,10A49.45,49.45,0,0,1,336.62,161.68Z"/>
      <path class="cls-9" d="M244.85,69.07c-3.57,5.22-7.22,10.38-10.66,15.69-1.26,1.94-2.14,2-4.05.73-7.55-5.07-7.58-5-2.53-12.58,2.4-3.61,4.72-7.28,7.08-10.92C237.88,64.64,242.11,65.78,244.85,69.07Z"/>
      <path class="cls-9" d="M226.86,56.87c-3.53,5.25-7.1,10.46-10.55,15.75-1.11,1.71-1.85,2.44-4,1-7.72-5.14-7.73-5-2.62-12.83,2.15-3.3,4.82-6.29,6.25-10C220.15,51.8,223.39,54.54,226.86,56.87Z"/>
      <path class="cls-10" d="M207.43,46.31c-2.68,5.47-6.59,10.15-9.77,15.31-.6,1-1.32,1.47-2.38.57a5.11,5.11,0,0,0-.62-.41c-8.18-5-8.18-5-2.83-13,1.72-2.58,3.46-5.15,5.19-7.72A22.75,22.75,0,0,1,207.43,46.31Z"/>
      <path class="cls-11" d="M241.77,161.06c-1.12.84-2.41.48-3.62.48q-92.31,0-184.63,0c-11.58,0-22.71-7.53-26.48-17.82,18.94-.31,37.85-.06,56.78,1.19,14.77,1,29.51,2.23,44.2,4,12.93,1.58,25.8,3.7,38.71,5.5,12.56,1.75,25.14,3.25,37.79,4.14C216.93,159.46,229.35,160.24,241.77,161.06Z"/>
    </g>
  </g>
</svg>
