<svg xmlns="http://www.w3.org/2000/svg" viewBox="0 0 453.54 453.54">
  <defs>
    <style>
      .cls-1 {
        fill: #ffd23b;
      }

      .cls-2 {
        fill: #b61c1c;
      }

      .cls-3 {
        fill: #42a4f4;
      }

      .cls-4 {
        fill: #fe3d00;
      }

      .cls-5 {
        fill: #feb64d;
      }

      .cls-6 {
        fill: #1e88e4;
      }

      .cls-7 {
        fill: #434242;
      }

      .cls-8 {
        fill: #feb74e;
      }

      .cls-9 {
        fill: #fe9701;
      }

      .cls-10 {
        fill: #fec928;
      }
    </style>
  </defs>
  <title>superman</title>
  <g id="Livello_4" data-name="Livello 4">
    <circle class="cls-1" cx="226.77" cy="226.77" r="203.76"/>
  </g>
  <g id="Livello_5" data-name="Livello 5">
    <g>
      <path class="cls-2" d="M250.24,164C261.8,171,273,178.7,285.19,184.68a95.93,95.93,0,0,0,26.12,8.79,81.37,81.37,0,0,0,22.85.58,101.29,101.29,0,0,0,39.24-12.89c.77-.43,1.51-.9,2.4-1.44,0,.89,0,1.68,0,2.46a193.91,193.91,0,0,1-17.32,71.06c-6.89,14.89-15.73,28.45-27.41,39.93a98,98,0,0,1-47.85,26.44,68.93,68.93,0,0,1-27.77,1A53.47,53.47,0,0,1,236.17,313c-.13-.08-.26-.14-.39-.21-.07-.44-.17-.87-.22-1.32q-1.16-9.37-2.29-18.75-1.4-11.31-2.78-22.63c-.34-2.73-.72-5.46-1.08-8.19v-15q0-12.7,0-25.42a32,32,0,0,1,.61-7.09c1.75-7.93,3.39-15.89,5-23.85a74.23,74.23,0,0,0,1.66-8.63c.48.07.58-.38.78-.65,1.08-1.45,2.14-2.92,3.22-4.37Z"/>
      <path class="cls-3" d="M229.41,261.88c.36,2.73.74,5.46,1.08,8.19q1.39,11.32,2.78,22.63,1.14,9.38,2.29,18.75c.05.45.15.88.22,1.32.32,2.82.63,5.63,1,8.44q1,8.55,2.09,17.09l2.1,17.09q1,8.49,2.08,17c.32,2.67.62,5.34,1,8,.1.71.06,1-.75,1q-13.78,0-27.56,0c-.79,0-.94-.36-1.09-1q-4.89-21.68-9.8-43.35Q199,311.1,193.12,285.22c0-.17-.12-.34-.27-.76-.72,3.13-1.4,6-2,8.92q-4.28,18.84-8.53,37.69-5.52,24.45-11,48.92c-.24,1.08-.66,1.36-1.71,1.36q-13.29-.08-26.57,0c-1,0-1.33-.2-1.19-1.28.66-5,1.25-10.05,1.87-15.09l2.1-17.08,2.1-17.09,2.07-17,2.1-17.09q1-8.43,2.07-16.87,1.11-9,2.23-18c1,.57,1.9,1.12,2.84,1.69l23.62,14.48c3,1.85,6.06,3.72,9.1,5.56.52.32,1,.63,1.71.19q9.3-5.76,18.65-11.44Z"/>
      <path class="cls-4" d="M236.69,181.89a74.23,74.23,0,0,1-1.66,8.63c-1.62,8-3.26,15.92-5,23.85a32,32,0,0,0-.61,7.09q0,12.72,0,25.42H156.32c0-.6,0-1.21,0-1.81.23-.46.71-.63,1.09-.91a15.05,15.05,0,0,0,3-21.58c-1.19-1.58-2.77-2.75-4.07-4.2a8.21,8.21,0,0,0-.11-2.1c-1.15-5.8-2.26-11.6-3.4-17.39-.91-4.59-1.85-9.16-2.77-13.75,0-.25-.06-.52-.12-.77l-8.2-31.15a25.59,25.59,0,0,1,6.63-4.49,59.15,59.15,0,0,1,20-5.83c3.31-.41,6.63-.51,9.95-.63.13,3.31-.26,6.64.24,9.94.57,3.81,2,7.19,5.13,9.55,4.53,3.43,9.66,3.62,14.84,2.2,5.72-1.57,8.58-6.57,9-12.21.22-3.16.06-6.34.08-9.52l8.53.06,13.46,0q2.47,13.41,4.93,26.82C235.19,173.38,235.93,177.64,236.69,181.89Zm-43.78-2.23c-3.36,0-6.73,0-10.1,0a1.9,1.9,0,0,0-1.54.62q-4.83,5-9.71,9.9c-.55.55-.5.86,0,1.43,3.75,4.43,7.46,8.9,11.19,13.34l9.49,11.3c.38.45.63.82,1.24.1q10.31-12.34,20.69-24.63c.48-.56.62-.94,0-1.56-3.27-3.26-6.49-6.57-9.71-9.89a1.89,1.89,0,0,0-1.55-.61C199.57,179.67,196.24,179.66,192.91,179.66Z"/>
      <path class="cls-3" d="M141.66,153.22l8.2,31.15c.06.25.08.52.12.77q-7.12,6.13-14.27,12.27c-.54.46-.53.72,0,1.2,1.7,1.58,3.38,3.2,5,4.83,2.53,2.49,5.18,4.84,7.59,7.45l-19.8,21.66a9.87,9.87,0,0,1-2.31-2q-11.39-10.93-22.71-21.92c-7-6.8-6.62-16.72.76-23.08q18.38-15.87,36.71-31.79C141.18,153.55,141.43,153.39,141.66,153.22Z"/>
      <path class="cls-3" d="M236.69,181.89c-.76-4.25-1.5-8.51-2.28-12.76q-2.44-13.41-4.93-26.82c4.82-6.56,9.59-13.16,14.49-19.66a9.31,9.31,0,0,0,1.43-4.47q2.16-13,4.25-26a.75.75,0,0,1,.1-.2l28.77,5q-2.7,16.59-5.41,33.17a14.58,14.58,0,0,1-2.73,6.28q-9.76,13.29-19.53,26.59c-.22.29-.41.61-.61.92l-9.55,12.9c-1.08,1.45-2.14,2.92-3.22,4.37C237.27,181.51,237.17,182,236.69,181.89Z"/>
      <path class="cls-5" d="M178.27,138.44a43.47,43.47,0,0,1-6-4.82,29.8,29.8,0,0,1-8.55-19c-.24-3.2-.1-6.41-.1-9.61l7.15,7.23a1.8,1.8,0,0,0,.18-1.2c0-4.22,0-8.44,0-12.65a1.91,1.91,0,0,1,.56-1.49q3.13-3.14,6.21-6.33a1.23,1.23,0,0,1,1.35-.38c2.64.57,5.29,1.08,7.94,1.62q13.37,2.73,26.74,5.43c.89.18,1.16.52,1.15,1.46-.06,4.1,0,8.21,0,12.31a1.89,1.89,0,0,0,.16,1.18l7.09-7.14c0,5,.39,10.06-.93,15a29.65,29.65,0,0,1-12.55,17.56c-.4.26-.77.56-1.16.83a2,2,0,0,0-.42.12,28.5,28.5,0,0,1-23.46,2.2C181.74,140.15,180.07,139.13,178.27,138.44Z"/>
      <path class="cls-6" d="M156.32,246.88h73.09v15l-17.17,10.49q-9.35,5.7-18.65,11.44c-.71.44-1.19.13-1.71-.19-3-1.84-6.06-3.71-9.1-5.56l-23.62-14.48c-.94-.57-1.89-1.12-2.84-1.69Z"/>
      <path class="cls-7" d="M222.12,105.06,215,112.2a1.89,1.89,0,0,1-.16-1.18c0-4.1,0-8.21,0-12.31,0-.94-.26-1.28-1.15-1.46Q200.36,94.57,187,91.82c-2.65-.54-5.3-1-7.94-1.62a1.23,1.23,0,0,0-1.35.38q-3.08,3.19-6.21,6.33a1.91,1.91,0,0,0-.56,1.49c0,4.21,0,8.43,0,12.65a1.8,1.8,0,0,1-.18,1.2L163.61,105c0-5.41-.37-10.84,1-16.14C166.2,83,169.27,78.38,175,76a2.9,2.9,0,0,1,.82-.3c2.07-.17,3.38-1.53,4.7-3s3-3.07,4.49-4.6c.25-.25.46-.56.9-.55,4.26.11,8.55-.33,12.78.69,8.85,2.13,15.92,6.74,20.28,15.12a28.76,28.76,0,0,1,3.12,12.34C222.22,98.87,222.13,102,222.12,105.06Z"/>
      <path class="cls-5" d="M128.51,232.55l19.8-21.66c.42.36.86.69,1.26,1.07l6.69,6.42c1.3,1.45,2.88,2.62,4.07,4.2a15.05,15.05,0,0,1-3,21.58c-.38.28-.86.45-1.09.91-.4-.08-.69.19-1,.35A14.31,14.31,0,0,1,139,242.83c-3.21-3.09-6.44-6.17-9.65-9.27C129,233.26,128.63,233,128.51,232.55Z"/>
      <path class="cls-8" d="M278.52,97l-28.77-5c.7-4.33,1.22-8.71,2.14-13a14.48,14.48,0,0,1,14.95-11.38c6.6.23,12.47,5.58,13.68,12.39.47,2.63,0,5.19-.45,7.75C279.57,90.86,279,93.93,278.52,97Z"/>
      <path class="cls-9" d="M178.27,138.44c1.8.69,3.47,1.71,5.33,2.31a28.5,28.5,0,0,0,23.46-2.2,2,2,0,0,1,.42-.12c0,1.27,0,2.54,0,3.8,0,3.18.14,6.36-.08,9.52-.39,5.64-3.25,10.64-9,12.21-5.18,1.42-10.31,1.23-14.84-2.2-3.11-2.36-4.56-5.74-5.13-9.55-.5-3.3-.11-6.63-.24-9.94C178.24,141,178.26,139.72,178.27,138.44Z"/>
      <path class="cls-10" d="M192.91,179.66c3.33,0,6.66,0,10,0a1.89,1.89,0,0,1,1.55.61c3.22,3.32,6.44,6.63,9.71,9.89.62.62.48,1,0,1.56Q203.8,204,193.47,216.34c-.61.72-.86.35-1.24-.1l-9.49-11.3C179,200.5,175.3,196,171.55,191.6c-.49-.57-.54-.88,0-1.43q4.89-4.9,9.71-9.9a1.9,1.9,0,0,1,1.54-.62C186.18,179.67,189.55,179.66,192.91,179.66Z"/>
    </g>
  </g>
</svg>
