<svg xmlns="http://www.w3.org/2000/svg" viewBox="0 0 453.54 453.54">
  <defs>
    <style>
      .cls-1 {
        fill: #ffd23b;
      }

      .cls-2 {
        fill: #b71e1f;
      }

      .cls-3 {
        fill: #2088e3;
      }

      .cls-4 {
        fill: #474646;
      }

      .cls-5 {
        fill: #48a6f3;
      }

      .cls-6 {
        fill: #48a7f4;
      }

      .cls-7 {
        fill: #48a5f1;
      }

      .cls-8 {
        fill: #4da8f1;
      }

      .cls-9 {
        fill: #f1b359;
      }

      .cls-10 {
        fill: #fabc5f;
      }

      .cls-11 {
        fill: #fc3f02;
      }

      .cls-12 {
        fill: #f8b34c;
      }

      .cls-13 {
        fill: #fe9603;
      }

      .cls-14 {
        fill: #fec025;
      }
    </style>
  </defs>
  <title>wonder_woman</title>
  <g id="Livello_4" data-name="Livello 4">
    <circle class="cls-1" cx="226.77" cy="226.77" r="203.76"/>
  </g>
  <g id="Livello_3" data-name="Livello 3">
    <g>
      <path class="cls-2" d="M220.64,158.64c14,7.74,28.24,15.15,42,23.27,43.27,25.49,59.44,26.88,110.47,8.7,4.35,47.48-27.88,107.64-69,128.42-33.6,17-65.64,13.32-96.2-7.84l-2.52-22.47c21.26-10.53,21.27-10.54,8.2-30.14-5.75-8.64-11.55-17.25-17.32-25.87-2.27-19,3.29-37,7.4-55.1C211.83,173.5,213.89,164,220.64,158.64Z"/>
      <path class="cls-3" d="M196.32,232.71c5.77,8.62,11.57,17.23,17.32,25.87,13.07,19.6,13.06,19.61-8.2,30.14l-36.28,4.37h-5l-37.54-4.68c-17.67-5.76-20.79-15.1-7.57-29.12,3.25-3.44,5.26-8.05,7.83-12.12,11,1.78,17.42-2.25,17.66-14Z"/>
      <path class="cls-4" d="M122.43,163c0-14.82-.26-29.65.12-44.46.64-25.29,14.88-40.58,37.55-48.91,14.16-5.2,36,6.49,44.2,23,5.61,11.35,6.78,23.62,7.58,36l-14.52,23-15.43-1c-.32-2.62-.65-5.23-1-7.84,8.93-7.95,9.14-18.51,7.89-29-1.88-16-17.31-16.9-27.65-20.16-7.83-2.46-15.17,7.83-16.38,16.49-1.6,11.39-2.61,23.62,7.59,32.7l-1,7.85c-8.54,1.15-16.94,2.6-22.23,10.58Z"/>
      <path class="cls-5" d="M169.16,293.09l36.28-4.37L208,311.19c-1.68,17.36,1.88,34.44,2.75,51.66.44,8.75-1.24,17-11.24,18.21-9.25,1.16-12.33-6.33-14-14Q177.3,330.06,169.16,293.09Z"/>
      <path class="cls-6" d="M126.66,288.41l37.54,4.68c-5.23,23.51-10.57,47-15.65,70.53-1.88,8.73-3.47,18.9-14.93,17.29-12.33-1.74-11.3-12.67-10.78-22.13Q124.76,323.59,126.66,288.41Z"/>
      <path class="cls-7" d="M197.36,151.66l14.52-23c13.09-9.93,6.9-26.76,13.91-38.87l19.5,2.76c2.19,25.93-10.11,46.45-24.65,66.14-6.75,5.34-8.81,14.86-16.92,19Z"/>
      <path class="cls-8" d="M122.43,163l6.78-1.72q1.39,13.08,2.78,26.16c-20.57,12.47-3.44,22.88,1.85,33.94l-15.77,12.38c-31.89-31.87-31.88-31.86-1.26-63.6A83.55,83.55,0,0,0,122.43,163Z"/>
      <path class="cls-9" d="M118.07,233.74l15.77-12.38,1.29.07,1.29-.11,8.16,11.81c-.24,11.79-6.64,15.82-17.66,14Z"/>
      <path class="cls-10" d="M245.29,92.5l-19.5-2.76c0-2.46-.1-4.93.1-7.38.7-8.59,4.86-15.43,13.92-12.48C251.88,73.82,249.89,83.35,245.29,92.5Z"/>
      <path class="cls-11" d="M144.58,233.13l-8.16-11.81c2.06-11.77-.24-23-4.43-33.9q-1.4-13.08-2.78-26.16c5.29-8,13.69-9.44,22.23-10.59,1.61,8.53,6,14.76,15.27,14.77s13.66-6.22,15.22-14.78l15.43,1,6.36,26c-4.11,18.15-9.67,36.09-7.4,55.1Zm33.56-44c-.07-7-4.46-8.51-9.83-8.38s-12.59-1.38-12.5,6.65c.07,6,4.05,12.75,10.41,13.35C173.07,201.39,175.86,194.55,178.14,189.12Z"/>
      <path class="cls-12" d="M152.41,142.82c-10.2-9.08-9.19-21.31-7.59-32.7,1.21-8.66,8.55-19,16.38-16.49,10.34,3.26,25.77,4.16,27.65,20.16,1.25,10.52,1,21.08-7.89,29Z"/>
      <path class="cls-13" d="M152.41,142.82H181c.32,2.6.65,5.21,1,7.83-1.56,8.56-5.92,14.79-15.22,14.78s-13.66-6.24-15.27-14.77C151.76,148.05,152.08,145.44,152.41,142.82Z"/>
      <path class="cls-14" d="M178.14,189.12c-2.28,5.43-5.07,12.27-11.92,11.62-6.36-.6-10.34-7.31-10.41-13.35-.09-8,7.26-6.52,12.5-6.65S178.07,182.15,178.14,189.12Z"/>
    </g>
  </g>
</svg>
